<svg xmlns="http://www.w3.org/2000/svg" width="375" viewBox="0 0 375 375" height="375" version="1.0"><g fill="#5CE1E6"><g><g><path d="M 64.285156 -49.71875 C 64.214844 -49.859375 64.285156 -49.789062 64.285156 -49.789062 C 63.933594 -50.699219 62.742188 -52.097656 61.621094 -51.890625 C 60.78125 -51.75 61.0625 -51.398438 60.710938 -50.980469 C 59.3125 -49.296875 57.703125 -47.828125 56.371094 -46.148438 C 52.871094 -41.734375 49.859375 -36.902344 46.847656 -32.140625 C 43.835938 -27.378906 41.035156 -22.617188 38.722656 -17.507812 C 37.742188 -15.335938 36.414062 -13.375 35.363281 -11.273438 C 33.890625 -8.402344 32.632812 -5.390625 31.371094 -2.449219 C 31.371094 -2.589844 31.511719 -5.8125 31.300781 -5.671875 C 31.160156 -5.53125 31.089844 -5.460938 31.089844 -5.390625 C 31.230469 -6.933594 31.792969 -8.824219 32.070312 -10.503906 C 32.492188 -12.953125 32.703125 -15.40625 32.914062 -17.855469 C 33.050781 -18.625 34.3125 -26.257812 35.082031 -30.042969 C 34.59375 -28.152344 34.03125 -25.488281 33.890625 -25.210938 C 34.523438 -28.5 35.222656 -31.792969 36.34375 -35.011719 C 36.273438 -34.734375 36.273438 -34.453125 36.414062 -34.453125 C 36.625 -34.453125 37.394531 -36.695312 37.183594 -36.761719 L 36.902344 -36.554688 C 37.183594 -37.183594 37.742188 -37.253906 37.675781 -38.304688 C 37.605469 -39.285156 37.113281 -40.195312 36.34375 -40.824219 C 35.785156 -41.386719 34.734375 -42.015625 33.890625 -41.804688 C 33.121094 -41.59375 33.191406 -41.175781 32.914062 -40.824219 C 30.25 -37.464844 27.03125 -33.824219 24.4375 -30.109375 C 23.597656 -28.992188 23.179688 -27.800781 22.339844 -26.609375 C 20.796875 -24.648438 19.398438 -22.546875 17.785156 -20.65625 C 16.175781 -18.625 15.265625 -16.527344 13.796875 -14.496094 L 10.082031 -9.171875 C 11.34375 -13.796875 12.113281 -18.488281 13.023438 -23.179688 C 13.234375 -24.367188 15.546875 -37.113281 15.546875 -37.113281 C 15.476562 -37.113281 14.074219 -29.691406 13.863281 -28.921875 C 14.636719 -32.980469 15.476562 -37.183594 15.894531 -41.316406 C 15.894531 -41.386719 15.824219 -40.054688 15.894531 -40.125 C 16.246094 -40.125 16.386719 -43.066406 16.105469 -42.996094 C 16.035156 -42.925781 15.964844 -42.855469 15.964844 -42.785156 C 15.964844 -43.417969 16.316406 -43.90625 16.316406 -44.816406 C 16.246094 -46.285156 16.035156 -47.6875 15.40625 -49.019531 C 14.914062 -50.070312 14.214844 -51.1875 13.023438 -51.398438 C 12.746094 -51.46875 12.675781 -51.257812 12.324219 -51.328125 C 11.972656 -51.328125 11.90625 -51.609375 11.554688 -51.609375 C 10.015625 -51.539062 8.824219 -50.070312 8.261719 -48.808594 C 7.492188 -47.335938 6.582031 -42.296875 9.804688 -44.464844 C 9.804688 -44.117188 9.59375 -40.753906 9.523438 -40.546875 C 9.664062 -40.613281 9.664062 -40.753906 9.734375 -40.894531 C 9.664062 -40.195312 9.59375 -39.566406 9.453125 -38.933594 C 9.382812 -39.003906 9.523438 -39.496094 9.382812 -39.496094 C 8.753906 -39.496094 8.121094 -33.402344 8.121094 -32.632812 C 8.054688 -31.230469 7.773438 -29.972656 7.421875 -28.570312 C 7.28125 -27.941406 7.144531 -27.308594 7.074219 -26.679688 C 7.003906 -26.609375 6.933594 -25 7.144531 -25.417969 C 7.144531 -25.28125 7.074219 -25.210938 7.074219 -25.070312 C 7.003906 -25.140625 7.003906 -25.210938 7.003906 -25.28125 C 6.933594 -25.210938 6.582031 -22.96875 6.511719 -22.898438 C 6.164062 -21.707031 5.671875 -20.65625 5.320312 -19.46875 C 4.550781 -16.667969 4.132812 -13.796875 3.429688 -10.992188 C 5.25 -16.527344 6.933594 -22.410156 8.121094 -28.082031 C 9.035156 -32.632812 10.292969 -37.535156 10.644531 -42.226562 C 10.292969 -36.484375 9.171875 -30.671875 7.773438 -25.210938 C 6.933594 -21.847656 6.023438 -18.488281 5.113281 -15.125 C 4.203125 -11.695312 2.660156 -8.402344 1.820312 -4.902344 C 1.402344 -3.292969 1.050781 -2.03125 0.488281 -0.421875 C -0.0703125 1.191406 -0.488281 2.941406 1.261719 3.992188 C 3.082031 5.042969 6.371094 4.621094 7.28125 2.519531 C 7.421875 2.171875 7.492188 1.820312 7.5625 1.46875 C 8.191406 -0.558594 9.59375 -2.382812 10.644531 -4.203125 C 12.535156 -7.492188 14.496094 -10.785156 16.667969 -13.933594 C 18.90625 -17.367188 21.21875 -20.65625 23.320312 -24.160156 C 24.300781 -25.769531 25.769531 -27.171875 26.890625 -28.710938 L 29.550781 -32.140625 C 29.410156 -31.792969 28.570312 -27.941406 28.5 -27.941406 C 28.570312 -27.941406 28.570312 -28.011719 28.640625 -28.011719 C 28.5 -27.589844 28.429688 -27.101562 28.359375 -26.679688 C 28.21875 -26.679688 28.429688 -27.101562 28.289062 -27.101562 C 27.378906 -27.238281 26.820312 -21.359375 26.820312 -20.9375 C 26.679688 -19.816406 26.328125 -18.695312 26.121094 -17.578125 C 25.910156 -16.667969 26.050781 -15.894531 26.050781 -15.265625 C 25.980469 -15.40625 25.980469 -14.496094 25.910156 -14.285156 C 25.839844 -13.515625 25.628906 -13.234375 25.417969 -12.535156 C 24.859375 -10.925781 24.71875 -9.035156 24.648438 -7.421875 C 24.578125 -4.339844 24.230469 -0.980469 24.648438 2.03125 C 24.929688 4.410156 27.238281 6.441406 29.691406 6.230469 C 31.019531 6.09375 31.300781 5.53125 31.582031 4.410156 C 31.792969 3.429688 32.28125 2.449219 32.773438 1.402344 C 34.523438 -2.3125 36.273438 -6.09375 38.234375 -9.664062 C 39.496094 -11.972656 40.195312 -14.285156 41.457031 -16.457031 C 43.136719 -19.398438 44.746094 -22.339844 46.566406 -25.140625 C 47.40625 -26.46875 48.039062 -27.800781 48.597656 -29.128906 C 49.367188 -30.8125 50.839844 -32.28125 51.890625 -33.824219 C 53.078125 -35.503906 54.128906 -37.183594 55.460938 -38.863281 C 56.652344 -40.335938 58.121094 -41.804688 59.101562 -43.417969 C 59.523438 -44.117188 59.242188 -44.117188 59.871094 -44.746094 C 60.292969 -45.167969 60.921875 -45.65625 61.484375 -46.078125 C 62.601562 -46.988281 64.84375 -47.898438 64.285156 -49.71875 Z M 33.191406 -22.617188 C 33.121094 -22.410156 33.332031 -22.898438 33.542969 -23.386719 C 33.542969 -23.457031 33.613281 -23.527344 33.613281 -23.597656 C 33.402344 -22.617188 33.191406 -21.847656 33.050781 -21.007812 C 33.050781 -21.496094 32.980469 -21.917969 33.191406 -22.617188 Z M 35.714844 -32.070312 C 35.644531 -32.070312 35.503906 -31.722656 35.363281 -31.019531 C 35.503906 -31.652344 35.714844 -32.070312 35.714844 -32.070312 Z M 35.714844 -32.070312" transform="translate(83.868 191.507)"/></g></g></g><g fill="#5CE1E6"><g><g><path d="M 26.820312 -17.296875 C 26.820312 -17.226562 26.820312 -17.226562 26.75 -17.296875 L 26.75 -17.367188 C 25.628906 -19.257812 24.160156 -16.667969 23.527344 -15.753906 C 22.339844 -14.144531 21.21875 -12.605469 19.957031 -11.132812 C 18.90625 -9.875 17.785156 -8.613281 16.945312 -7.28125 C 16.945312 -7.144531 16.804688 -6.792969 16.804688 -6.792969 C 16.527344 -6.371094 16.105469 -6.023438 15.753906 -5.601562 C 15.125 -4.972656 14.496094 -4.273438 13.796875 -3.640625 C 12.746094 -2.660156 6.863281 2.871094 6.09375 -0.699219 C 5.671875 -2.449219 6.230469 -4.621094 6.582031 -6.300781 C 6.792969 -7.210938 7.003906 -8.054688 7.144531 -8.964844 C 7.28125 -9.664062 7.074219 -10.363281 7.421875 -11.0625 C 7.632812 -11.484375 7.703125 -11.414062 8.191406 -11.554688 L 9.382812 -11.972656 C 10.152344 -12.253906 10.925781 -12.535156 11.625 -12.953125 C 12.675781 -13.585938 13.65625 -14.355469 14.566406 -15.125 C 16.734375 -16.945312 19.046875 -19.117188 19.957031 -21.847656 C 20.449219 -23.386719 20.515625 -25.070312 19.539062 -26.398438 C 18.625 -27.589844 17.085938 -28.21875 15.6875 -28.5 C 11.90625 -29.199219 9.035156 -27.03125 6.863281 -24.160156 C 4.203125 -20.867188 2.3125 -16.804688 1.402344 -12.675781 C 0.910156 -10.644531 0.628906 -8.613281 0.28125 -6.511719 C -0.0703125 -4.410156 -0.28125 -2.449219 0.839844 -0.488281 C 0.769531 -1.191406 0.628906 -1.820312 0.628906 -2.449219 C 0.628906 -2.800781 0.769531 -3.152344 0.769531 -3.429688 C 0.769531 -3.570312 0.628906 -3.992188 0.628906 -4.203125 C 0.628906 -4.832031 0.769531 -5.320312 0.910156 -5.953125 C 0.980469 -6.582031 0.910156 -7.210938 0.980469 -7.84375 C 1.050781 -8.542969 1.332031 -9.101562 1.609375 -9.734375 C 1.820312 -10.292969 1.890625 -10.785156 2.101562 -11.34375 C 2.3125 -11.835938 2.449219 -12.394531 2.660156 -12.953125 C 2.730469 -13.304688 3.082031 -13.726562 3.292969 -14.144531 C 3.082031 -13.515625 2.660156 -12.953125 2.519531 -12.394531 C 2.3125 -11.554688 2.449219 -10.644531 2.382812 -9.804688 C 2.242188 -8.894531 1.960938 -7.984375 1.820312 -7.003906 C 1.679688 -6.09375 1.261719 -5.25 1.121094 -4.339844 C 0.980469 -3.5 0.699219 -2.871094 0.769531 -2.03125 C 0.769531 -1.539062 0.839844 -1.050781 0.910156 -0.628906 C 0.980469 -0.0703125 1.332031 0.28125 1.679688 0.699219 C 2.871094 2.101562 4.480469 3.222656 6.300781 3.710938 C 7.5625 4.0625 8.683594 3.992188 9.875 3.359375 C 11.554688 2.449219 13.023438 1.050781 14.285156 -0.28125 C 15.476562 -1.609375 16.386719 -3.082031 17.4375 -4.480469 C 18.417969 -5.742188 19.605469 -6.933594 20.585938 -8.191406 L 24.367188 -13.09375 L 26.539062 -15.964844 C 26.890625 -16.386719 27.101562 -16.734375 26.820312 -17.296875 Z M 9.453125 -16.527344 C 9.523438 -16.667969 9.523438 -16.734375 9.523438 -16.734375 C 10.574219 -18.976562 11.34375 -21.359375 12.816406 -23.527344 L 14.074219 -25.210938 C 14.355469 -25.558594 14.84375 -26.191406 15.335938 -26.328125 C 16.386719 -26.539062 16.667969 -24.71875 16.597656 -24.019531 L 16.316406 -22.546875 C 16.246094 -22.128906 16.386719 -21.847656 16.316406 -21.496094 C 16.175781 -21.078125 15.824219 -20.867188 15.617188 -20.515625 L 14.425781 -18.976562 C 12.816406 -17.085938 10.785156 -15.476562 8.542969 -14.285156 C 8.894531 -15.054688 9.101562 -15.824219 9.453125 -16.527344 Z M 9.453125 -16.527344" transform="translate(131.271 191.507)"/></g></g></g><g fill="#5CE1E6"><g><g><path d="M 18.347656 -17.226562 C 18.207031 -18.136719 17.226562 -17.855469 16.734375 -17.507812 C 16.105469 -17.085938 12.605469 -12.464844 12.882812 -12.113281 C 13.09375 -12.113281 13.234375 -12.113281 13.375 -12.253906 C 12.394531 -11.0625 10.574219 -9.734375 9.242188 -8.683594 C 8.472656 -8.054688 6.582031 -6.300781 5.460938 -6.863281 C 3.082031 -8.054688 7.914062 -16.457031 7.703125 -16.527344 C 7.492188 -16.597656 5.742188 -12.675781 5.390625 -11.765625 C 6.230469 -14.214844 7.351562 -16.667969 8.683594 -18.835938 C 8.613281 -18.625 8.402344 -18.277344 8.542969 -18.277344 C 8.683594 -18.207031 9.734375 -19.675781 9.523438 -19.816406 C 9.453125 -19.816406 9.3125 -19.816406 9.242188 -19.746094 C 9.453125 -19.957031 9.804688 -20.027344 9.804688 -20.449219 C 9.804688 -21.148438 8.191406 -21.847656 7.632812 -22.058594 C 6.300781 -22.617188 4.972656 -22.757812 3.921875 -22.058594 C 2.519531 -21.21875 2.242188 -19.539062 1.679688 -18.066406 C 1.539062 -17.648438 0.210938 -12.675781 0.488281 -12.605469 C 0.628906 -12.675781 0.628906 -12.746094 0.699219 -12.882812 L 0.488281 -11.625 C 0.421875 -11.625 0.558594 -11.972656 0.421875 -11.972656 C -0.140625 -11.972656 0 -9.453125 0.0703125 -9.101562 C 0.351562 -7.84375 1.332031 -6.933594 2.101562 -5.882812 C 2.519531 -5.25 2.941406 -4.621094 3.570312 -4.203125 C 4.410156 -3.570312 3.851562 -4.203125 4.410156 -3.921875 L 4.273438 -3.921875 C 4.203125 -3.5 6.863281 -2.800781 7.421875 -2.871094 C 9.875 -3.429688 11.625 -6.441406 13.023438 -8.332031 C 14.355469 -10.015625 15.476562 -11.695312 16.667969 -13.445312 C 17.367188 -14.355469 18.625 -15.894531 18.347656 -17.226562 Z M 6.09375 -26.050781 C 6.230469 -25.839844 6.023438 -25.558594 6.511719 -25.28125 C 7.003906 -25.070312 7.28125 -25.347656 7.703125 -25.488281 C 8.542969 -25.839844 9.171875 -26.75 9.804688 -27.308594 C 10.015625 -27.449219 9.59375 -27.378906 9.59375 -27.378906 C 10.503906 -28.21875 9.734375 -27.238281 10.574219 -27.730469 C 11.414062 -28.289062 11.554688 -29.199219 12.253906 -29.972656 C 11.414062 -29.621094 10.785156 -29.128906 10.222656 -28.429688 C 9.523438 -27.519531 9.035156 -27.101562 8.261719 -26.609375 C 9.101562 -27.238281 9.523438 -27.871094 10.222656 -28.992188 C 10.433594 -29.199219 10.644531 -29.339844 10.925781 -29.480469 C 10.714844 -29.691406 10.714844 -29.902344 10.992188 -30.109375 C 11.203125 -30.460938 11.625 -30.601562 11.835938 -30.953125 C 12.183594 -31.441406 12.113281 -32.070312 12.535156 -32.5625 C 12.882812 -32.84375 13.375 -33.050781 13.65625 -33.332031 C 14.285156 -33.890625 14.984375 -34.941406 14.707031 -35.851562 C 14.425781 -36.695312 13.726562 -37.742188 12.953125 -38.234375 C 12.042969 -38.722656 10.785156 -38.933594 9.804688 -38.515625 C 9.59375 -38.445312 8.753906 -38.234375 9.035156 -37.953125 C 9.101562 -37.8125 9.171875 -37.8125 9.3125 -37.8125 C 8.683594 -37.324219 7.632812 -36.484375 9.101562 -35.921875 C 8.964844 -35.785156 9.101562 -35.152344 9.101562 -35.082031 C 9.035156 -34.59375 8.054688 -32 7.421875 -30.742188 L 8.261719 -32 C 7.773438 -30.953125 7.210938 -29.972656 6.582031 -29.128906 C 7.003906 -30.042969 6.164062 -28.992188 6.164062 -28.78125 C 5.390625 -29.128906 5.601562 -26.960938 5.671875 -26.75 C 5.671875 -26.679688 6.09375 -26.050781 6.09375 -26.050781 Z M 4.761719 -9.382812 L 4.761719 -9.3125 L 4.621094 -8.894531 L 4.761719 -9.453125 C 4.832031 -9.523438 4.832031 -9.523438 4.761719 -9.382812 Z M 7.074219 -30.179688 C 7.074219 -30.179688 7.210938 -30.320312 7.351562 -30.601562 Z M 6.371094 -28.851562 C 6.371094 -28.78125 6.371094 -28.78125 6.300781 -28.710938 C 6.300781 -28.710938 6.300781 -28.78125 6.230469 -28.78125 C 6.300781 -28.78125 6.300781 -28.78125 6.371094 -28.851562 Z M 6.371094 -28.851562" transform="translate(153.047 191.507)"/></g></g></g><g fill="#8C52FF"><g><g><path d="M 33.261719 -9.242188 C 31.722656 -9.382812 30.042969 -9.453125 28.429688 -9.382812 C 23.597656 -9.101562 18.765625 -7.914062 14.144531 -6.511719 C 17.648438 -15.40625 19.398438 -24.859375 22.410156 -33.960938 C 23.878906 -38.375 25.488281 -43.277344 28.359375 -46.988281 C 28.992188 -47.828125 30.53125 -49.71875 31.863281 -49.367188 C 32.980469 -49.019531 32.421875 -46.148438 32.210938 -45.375 C 32.492188 -46.355469 33.683594 -50.347656 30.8125 -49.296875 C 27.730469 -48.179688 25.910156 -43.695312 24.71875 -40.964844 C 25.769531 -43.484375 26.960938 -46.285156 28.921875 -48.246094 C 29.761719 -49.019531 31.792969 -50.558594 32.703125 -49.226562 C 33.542969 -47.96875 32.492188 -45.097656 32.140625 -43.90625 C 31.441406 -41.59375 30.53125 -39.285156 29.480469 -37.113281 C 29.480469 -37.253906 30.390625 -39.496094 30.320312 -39.496094 C 30.042969 -39.566406 27.589844 -34.453125 27.589844 -34.382812 L 27.660156 -34.382812 C 27.589844 -34.242188 27.449219 -34.171875 27.449219 -34.171875 C 26.890625 -33.121094 28.011719 -32.632812 28.921875 -32.5625 C 30.320312 -32.421875 31.863281 -33.121094 32.980469 -33.960938 C 35.921875 -36.203125 38.445312 -41.457031 38.234375 -45.167969 C 38.023438 -48.179688 36.902344 -50.347656 33.960938 -51.960938 C 32.351562 -52.871094 30.320312 -53.570312 28.359375 -53.429688 C 25.558594 -53.289062 23.386719 -51.46875 21.847656 -49.226562 C 20.65625 -47.40625 19.886719 -45.445312 19.1875 -43.484375 L 18.207031 -40.546875 C 17.925781 -39.773438 17.15625 -38.515625 17.296875 -37.742188 C 17.296875 -37.605469 17.785156 -38.652344 17.855469 -38.722656 C 17.4375 -37.394531 17.085938 -35.992188 16.667969 -34.59375 C 16.597656 -34.664062 16.875 -35.644531 16.804688 -35.644531 C 16.457031 -35.644531 15.265625 -31.160156 15.125 -30.8125 C 14.425781 -28.289062 13.65625 -25.699219 13.375 -23.039062 C 13.09375 -20.585938 12.746094 -18.347656 12.113281 -15.964844 C 11.835938 -14.636719 11.414062 -13.375 11.0625 -12.042969 C 10.855469 -11.132812 9.734375 -8.613281 10.082031 -7.703125 C 10.152344 -7.632812 10.222656 -7.632812 10.292969 -7.703125 C 10.082031 -7.074219 10.015625 -6.511719 9.804688 -5.953125 C 9.804688 -5.953125 10.152344 -7.421875 10.082031 -7.421875 C 9.734375 -7.210938 9.664062 -5.53125 9.664062 -5.601562 C 9.242188 -4.480469 7.914062 -4.480469 6.863281 -3.992188 C 5.953125 -3.640625 5.183594 -3.082031 4.480469 -2.382812 C 3.011719 -0.910156 1.121094 1.679688 1.820312 3.992188 C 2.3125 5.671875 4.203125 6.09375 5.742188 5.882812 C 6.441406 5.742188 8.613281 5.042969 8.472656 4.132812 C 8.402344 3.992188 7.351562 4.691406 7.003906 4.832031 C 7.492188 4.480469 8.054688 3.992188 8.472656 3.570312 C 8.402344 3.78125 9.804688 2.242188 9.945312 2.03125 C 10.714844 0.980469 11.625 0.558594 12.746094 0 C 14.636719 -1.050781 16.597656 -2.03125 18.625 -2.730469 C 22.96875 -4.273438 27.730469 -4.410156 31.863281 -6.511719 C 32.914062 -7.003906 35.714844 -8.964844 33.261719 -9.242188 Z M 18.488281 -39.703125 C 19.46875 -42.574219 20.726562 -45.238281 22.546875 -47.6875 C 24.019531 -49.71875 25.699219 -50.980469 27.941406 -51.46875 C 22.339844 -50.070312 20.378906 -42.367188 18.207031 -37.605469 C 17.507812 -35.921875 16.875 -34.242188 16.316406 -32.421875 C 16.945312 -34.871094 17.714844 -37.253906 18.488281 -39.703125 Z M 22.199219 -34.242188 L 22.199219 -34.3125 L 22.199219 -34.171875 L 20.585938 -29.339844 C 21.078125 -31.019531 21.636719 -32.632812 22.199219 -34.3125 Z M 6.933594 4.902344 C 6.933594 4.902344 6.933594 4.832031 7.003906 4.832031 Z M 6.933594 4.902344" transform="translate(166.277 191.507)"/></g></g></g><g fill="#8C52FF"><g><g><path d="M 32.210938 -17.4375 C 32.210938 -17.4375 32.28125 -17.367188 32.210938 -17.507812 C 31.863281 -17.996094 31.371094 -17.648438 30.882812 -17.507812 C 28.851562 -17.085938 26.75 -16.597656 24.648438 -16.246094 C 25.417969 -18.765625 26.191406 -21.429688 26.46875 -24.019531 C 26.609375 -25 26.679688 -26.050781 26.46875 -27.03125 C 26.328125 -27.660156 26.121094 -28.289062 25.769531 -28.851562 C 25.769531 -28.851562 24.929688 -29.902344 25.140625 -29.339844 L 25.070312 -29.410156 L 24.789062 -29.972656 L 25.070312 -29.691406 C 25.140625 -30.109375 23.949219 -30.882812 23.949219 -30.882812 C 22.199219 -32.632812 19.816406 -33.960938 17.4375 -32.632812 C 15.964844 -31.792969 14.777344 -30.390625 13.796875 -28.992188 C 13.445312 -28.5 13.09375 -27.941406 12.816406 -27.378906 C 12.535156 -26.820312 12.113281 -25 11.695312 -24.71875 C 11.34375 -24.4375 10.292969 -24.367188 9.804688 -24.089844 C 9.101562 -23.808594 8.472656 -23.457031 7.914062 -23.039062 C 6.582031 -22.199219 5.53125 -21.007812 4.550781 -19.816406 C 2.871094 -17.578125 2.03125 -15.054688 0.839844 -12.816406 C -1.402344 -8.542969 1.050781 -2.941406 5.183594 -0.910156 C 6.511719 -0.28125 8.054688 0 9.453125 -0.140625 C 10.925781 -0.351562 12.324219 -1.121094 13.445312 -1.960938 C 14.496094 -2.730469 16.804688 -4.132812 17.226562 -5.320312 C 17.226562 -5.390625 17.085938 -5.320312 16.875 -5.113281 L 18.90625 -7.492188 C 18.976562 -7.421875 18.417969 -6.722656 18.417969 -6.722656 C 18.90625 -6.511719 21.429688 -10.222656 21.707031 -10.503906 C 22.199219 -11.34375 22.6875 -12.253906 23.25 -13.09375 C 23.738281 -13.726562 23.597656 -13.65625 24.300781 -13.933594 C 24.230469 -13.863281 25.140625 -14.144531 25.28125 -14.144531 C 26.050781 -14.285156 34.242188 -14.84375 32.210938 -17.4375 Z M 7.984375 -3.292969 L 7.914062 -3.292969 C 2.101562 -2.449219 8.824219 -14.777344 8.964844 -15.476562 L 8.542969 -14.84375 C 9.59375 -16.945312 10.574219 -18.625 11.0625 -19.1875 C 11.835938 -15.6875 15.617188 -14.355469 18.695312 -13.933594 C 16.667969 -9.875 12.882812 -4.203125 7.984375 -3.292969 Z M 21.777344 -22.6875 C 21.289062 -20.726562 20.867188 -18.136719 19.816406 -16.386719 C 19.46875 -15.6875 19.675781 -15.894531 18.976562 -15.753906 C 18.558594 -15.617188 17.648438 -15.753906 17.226562 -15.824219 C 16.457031 -15.894531 15.546875 -16.035156 14.984375 -16.527344 C 14.003906 -17.367188 14.144531 -18.695312 14.285156 -19.886719 C 14.425781 -21.078125 14.777344 -22.199219 15.195312 -23.320312 C 15.40625 -23.738281 16.734375 -25.980469 16.527344 -26.398438 C 16.457031 -26.609375 15.6875 -25.347656 15.617188 -25.28125 C 16.035156 -26.050781 16.457031 -26.46875 16.804688 -26.960938 C 16.734375 -26.960938 16.804688 -27.03125 16.875 -27.171875 L 16.875 -27.101562 L 16.945312 -27.238281 C 16.945312 -27.238281 16.945312 -27.308594 17.015625 -27.308594 C 18.066406 -28.710938 20.65625 -31.863281 22.058594 -29.691406 C 23.109375 -27.871094 22.128906 -24.4375 21.777344 -22.6875 Z M 16.945312 -27.238281 L 17.015625 -27.308594 C 17.015625 -27.238281 16.945312 -27.238281 16.945312 -27.238281 Z M 16.945312 -27.238281" transform="translate(201.217 191.507)"/></g></g></g><g fill="#8C52FF"><g><g><path d="M 32.210938 -17.4375 C 32.210938 -17.4375 32.28125 -17.367188 32.210938 -17.507812 C 31.863281 -17.996094 31.371094 -17.648438 30.882812 -17.507812 C 28.851562 -17.085938 26.75 -16.597656 24.648438 -16.246094 C 25.417969 -18.765625 26.191406 -21.429688 26.46875 -24.019531 C 26.609375 -25 26.679688 -26.050781 26.46875 -27.03125 C 26.328125 -27.660156 26.121094 -28.289062 25.769531 -28.851562 C 25.769531 -28.851562 24.929688 -29.902344 25.140625 -29.339844 L 25.070312 -29.410156 L 24.789062 -29.972656 L 25.070312 -29.691406 C 25.140625 -30.109375 23.949219 -30.882812 23.949219 -30.882812 C 22.199219 -32.632812 19.816406 -33.960938 17.4375 -32.632812 C 15.964844 -31.792969 14.777344 -30.390625 13.796875 -28.992188 C 13.445312 -28.5 13.09375 -27.941406 12.816406 -27.378906 C 12.535156 -26.820312 12.113281 -25 11.695312 -24.71875 C 11.34375 -24.4375 10.292969 -24.367188 9.804688 -24.089844 C 9.101562 -23.808594 8.472656 -23.457031 7.914062 -23.039062 C 6.582031 -22.199219 5.53125 -21.007812 4.550781 -19.816406 C 2.871094 -17.578125 2.03125 -15.054688 0.839844 -12.816406 C -1.402344 -8.542969 1.050781 -2.941406 5.183594 -0.910156 C 6.511719 -0.28125 8.054688 0 9.453125 -0.140625 C 10.925781 -0.351562 12.324219 -1.121094 13.445312 -1.960938 C 14.496094 -2.730469 16.804688 -4.132812 17.226562 -5.320312 C 17.226562 -5.390625 17.085938 -5.320312 16.875 -5.113281 L 18.90625 -7.492188 C 18.976562 -7.421875 18.417969 -6.722656 18.417969 -6.722656 C 18.90625 -6.511719 21.429688 -10.222656 21.707031 -10.503906 C 22.199219 -11.34375 22.6875 -12.253906 23.25 -13.09375 C 23.738281 -13.726562 23.597656 -13.65625 24.300781 -13.933594 C 24.230469 -13.863281 25.140625 -14.144531 25.28125 -14.144531 C 26.050781 -14.285156 34.242188 -14.84375 32.210938 -17.4375 Z M 7.984375 -3.292969 L 7.914062 -3.292969 C 2.101562 -2.449219 8.824219 -14.777344 8.964844 -15.476562 L 8.542969 -14.84375 C 9.59375 -16.945312 10.574219 -18.625 11.0625 -19.1875 C 11.835938 -15.6875 15.617188 -14.355469 18.695312 -13.933594 C 16.667969 -9.875 12.882812 -4.203125 7.984375 -3.292969 Z M 21.777344 -22.6875 C 21.289062 -20.726562 20.867188 -18.136719 19.816406 -16.386719 C 19.46875 -15.6875 19.675781 -15.894531 18.976562 -15.753906 C 18.558594 -15.617188 17.648438 -15.753906 17.226562 -15.824219 C 16.457031 -15.894531 15.546875 -16.035156 14.984375 -16.527344 C 14.003906 -17.367188 14.144531 -18.695312 14.285156 -19.886719 C 14.425781 -21.078125 14.777344 -22.199219 15.195312 -23.320312 C 15.40625 -23.738281 16.734375 -25.980469 16.527344 -26.398438 C 16.457031 -26.609375 15.6875 -25.347656 15.617188 -25.28125 C 16.035156 -26.050781 16.457031 -26.46875 16.804688 -26.960938 C 16.734375 -26.960938 16.804688 -27.03125 16.875 -27.171875 L 16.875 -27.101562 L 16.945312 -27.238281 C 16.945312 -27.238281 16.945312 -27.308594 17.015625 -27.308594 C 18.066406 -28.710938 20.65625 -31.863281 22.058594 -29.691406 C 23.109375 -27.871094 22.128906 -24.4375 21.777344 -22.6875 Z M 16.945312 -27.238281 L 17.015625 -27.308594 C 17.015625 -27.238281 16.945312 -27.238281 16.945312 -27.238281 Z M 16.945312 -27.238281" transform="translate(228.595 191.507)"/></g></g></g><g fill="#8C52FF"><g><g><path d="M 28.992188 -16.667969 C 28.640625 -18.347656 27.660156 -17.226562 27.238281 -16.597656 C 26.257812 -15.40625 24.71875 -14.285156 23.527344 -13.164062 C 21.917969 -11.765625 20.308594 -10.292969 18.625 -8.964844 C 17.785156 -8.261719 16.734375 -7.28125 15.6875 -6.933594 C 15.546875 -6.863281 15.054688 -6.792969 15.054688 -6.722656 L 14.984375 -6.792969 C 14.984375 -6.792969 14.914062 -7.914062 14.984375 -7.984375 C 15.054688 -8.894531 15.335938 -9.804688 15.617188 -10.644531 C 15.6875 -10.785156 16.457031 -13.164062 16.316406 -13.164062 L 15.964844 -12.746094 C 16.386719 -13.585938 16.945312 -14.425781 17.4375 -15.335938 C 16.316406 -14.285156 15.546875 -13.09375 14.984375 -11.625 C 14.707031 -10.925781 13.933594 -9.664062 13.796875 -8.613281 C 13.933594 -10.152344 14.984375 -12.183594 15.476562 -13.09375 C 16.175781 -14.566406 16.945312 -16.246094 17.855469 -17.648438 C 19.539062 -20.167969 23.179688 -22.476562 22.058594 -25.980469 C 21.078125 -29.269531 18.488281 -29.339844 16.457031 -27.449219 C 15.476562 -26.539062 7.144531 -15.894531 7.351562 -15.753906 C 7.351562 -15.753906 8.054688 -16.597656 8.964844 -17.785156 L 4.832031 -11.765625 C 4.761719 -11.765625 5.53125 -12.953125 5.460938 -13.023438 C 5.390625 -13.09375 4.902344 -12.605469 4.832031 -12.324219 C 4.972656 -13.796875 5.460938 -15.265625 5.601562 -16.734375 C 5.671875 -17.296875 5.601562 -17.714844 5.742188 -18.277344 C 6.023438 -19.1875 6.300781 -20.167969 6.722656 -20.9375 C 7.003906 -21.496094 7.5625 -21.988281 7.703125 -22.546875 C 7.984375 -23.457031 7.914062 -23.808594 8.542969 -24.578125 C 9.101562 -25.28125 9.945312 -25.980469 10.433594 -26.609375 C 11.625 -28.359375 9.59375 -29.550781 8.472656 -29.761719 C 7.5625 -29.902344 6.652344 -29.972656 5.8125 -29.480469 C 4.902344 -28.921875 5.113281 -28.429688 4.902344 -27.660156 C 4.691406 -26.679688 3.992188 -25.558594 3.640625 -24.648438 C 3.082031 -23.179688 2.589844 -21.707031 2.101562 -20.238281 C 1.539062 -18.765625 0.980469 -17.367188 0.558594 -15.894531 C 0.210938 -14.707031 0.28125 -13.585938 0.140625 -12.464844 C 0 -11.203125 -0.210938 -10.363281 0.421875 -9.242188 C 1.121094 -8.054688 3.011719 -6.230469 4.273438 -7.773438 L 4.550781 -7.210938 C 5.742188 -9.804688 7.5625 -12.113281 9.035156 -14.636719 C 9.664062 -15.753906 10.785156 -16.527344 11.695312 -17.714844 C 12.953125 -19.398438 14.074219 -21.078125 15.476562 -22.6875 C 15.265625 -22.339844 14.355469 -20.726562 14.425781 -20.65625 C 14.566406 -20.726562 14.636719 -20.867188 14.777344 -21.007812 L 13.796875 -19.046875 C 13.726562 -19.117188 14.074219 -19.605469 13.933594 -19.605469 C 13.445312 -19.746094 11.972656 -15.824219 11.835938 -15.476562 C 11.34375 -13.933594 11.273438 -12.535156 11.132812 -10.925781 C 11.0625 -10.152344 10.925781 -9.382812 10.925781 -8.613281 C 10.925781 -7.84375 10.992188 -7.074219 11.34375 -6.300781 C 11.554688 -5.882812 11.835938 -5.320312 12.183594 -4.972656 C 12.253906 -4.972656 13.023438 -4.273438 12.675781 -4.832031 L 13.09375 -4.410156 L 12.882812 -4.550781 C 12.816406 -4.203125 15.40625 -2.800781 15.824219 -2.660156 C 17.785156 -2.03125 19.886719 -4.273438 21.148438 -5.601562 C 22.828125 -7.421875 24.230469 -9.523438 25.769531 -11.484375 C 26.609375 -12.605469 29.269531 -14.984375 28.992188 -16.667969 Z M 28.992188 -16.667969" transform="translate(255.973 191.507)"/></g></g></g><g fill="#8C52FF"><g><g><path d="M 35.714844 -16.804688 C 35.433594 -18.835938 33.402344 -16.804688 32.773438 -16.246094 C 31.582031 -15.335938 30.320312 -14.566406 29.128906 -13.65625 C 27.519531 -12.535156 25.980469 -11.273438 24.4375 -10.015625 C 23.808594 -9.523438 19.957031 -5.953125 19.605469 -6.164062 C 20.726562 -9.664062 22.6875 -13.164062 24.578125 -16.457031 C 26.328125 -19.398438 22.757812 -21.917969 19.886719 -20.65625 C 19.046875 -20.308594 18.136719 -18.765625 17.578125 -17.996094 C 16.246094 -16.105469 14.984375 -14.074219 13.65625 -12.183594 L 11.765625 -9.3125 C 11.554688 -9.035156 10.222656 -7.074219 10.433594 -7.074219 C 10.503906 -7.074219 10.574219 -7.144531 10.644531 -7.210938 C 9.242188 -5.320312 7.210938 -2.941406 5.390625 -1.609375 C 2.871094 0.351562 4.339844 -5.53125 4.691406 -6.511719 C 5.742188 -9.664062 7.492188 -12.675781 9.382812 -15.40625 C 9.664062 -15.824219 13.515625 -20.726562 14.777344 -21.917969 C 13.515625 -20.867188 9.734375 -16.175781 9.101562 -15.40625 C 11.34375 -18.625 14.914062 -23.738281 19.117188 -24.4375 L 18.207031 -24.089844 C 19.046875 -24.230469 20.9375 -24.160156 20.9375 -24.160156 L 20.726562 -24.367188 C 21.078125 -24.160156 21.289062 -23.878906 21.707031 -23.878906 C 23.457031 -23.949219 23.039062 -26.75 22.269531 -27.589844 C 21.21875 -28.992188 18.695312 -29.550781 17.015625 -29.128906 C 16.527344 -28.992188 16.316406 -28.710938 15.753906 -28.640625 C 15.125 -28.5 14.636719 -28.640625 13.863281 -28.21875 C 12.464844 -27.519531 11.273438 -26.539062 10.152344 -25.417969 C 9.453125 -24.789062 2.730469 -17.578125 3.222656 -17.296875 C 3.359375 -17.296875 3.5 -17.4375 3.570312 -17.507812 L 2.382812 -15.753906 C 2.3125 -15.824219 2.660156 -16.316406 2.589844 -16.316406 C 2.3125 -16.457031 0.910156 -14.144531 0.839844 -13.933594 C 0.140625 -12.816406 -0.421875 -11.554688 -0.628906 -10.222656 C -0.910156 -8.753906 -0.980469 -7.144531 -0.980469 -5.671875 C -0.980469 -4.691406 -0.910156 -3.710938 -0.628906 -2.800781 C -0.558594 -2.660156 0.28125 -1.050781 0.140625 -1.75 L 0.351562 -1.261719 C 0.28125 -1.261719 0.210938 -1.332031 0.140625 -1.402344 C -0.140625 -0.910156 2.519531 1.46875 3.011719 1.679688 C 4.0625 2.171875 5.042969 1.890625 6.09375 1.261719 C 8.402344 -0.140625 10.015625 -2.800781 11.625 -5.042969 C 13.375 -7.421875 15.335938 -9.875 16.804688 -12.535156 L 15.265625 -7.074219 C 14.636719 -5.042969 14.285156 -2.03125 13.023438 -0.421875 C 11.695312 1.191406 9.734375 2.589844 8.261719 3.992188 C 6.722656 5.390625 5.183594 6.792969 3.78125 8.402344 C 1.75 10.714844 -0.140625 13.234375 -1.890625 15.753906 C -3.921875 18.695312 -5.320312 21.847656 -3.921875 25.28125 C -2.660156 28.289062 0.210938 31.089844 3.710938 30.25 C 6.722656 29.480469 7.84375 26.960938 9.171875 24.578125 C 13.375 17.296875 15.476562 8.894531 17.855469 0.839844 C 18.207031 -0.351562 18.417969 -1.539062 19.257812 -2.449219 C 20.097656 -3.292969 21.148438 -4.0625 22.128906 -4.832031 C 24.089844 -6.582031 26.121094 -8.191406 28.21875 -9.875 L 33.890625 -14.214844 C 34.804688 -14.914062 35.992188 -15.476562 35.714844 -16.804688 Z M 10.925781 7.003906 C 10.925781 6.933594 10.574219 7.914062 10.644531 7.773438 C 9.171875 12.042969 7.773438 16.316406 5.8125 20.378906 C 4.832031 22.410156 0.210938 30.8125 -1.46875 24.648438 C -2.589844 20.726562 1.191406 16.246094 3.359375 13.375 C 6.023438 9.945312 8.753906 6.863281 11.90625 3.921875 C 11.625 4.972656 11.273438 6.023438 10.925781 7.003906 Z M 10.644531 11.90625 C 10.222656 13.445312 9.734375 14.984375 9.101562 16.457031 C 8.472656 17.648438 7.632812 18.695312 7.003906 19.816406 C 8.261719 17.085938 9.59375 14.496094 10.644531 11.695312 Z M 7.144531 -14.003906 C 6.722656 -13.234375 6.09375 -12.535156 5.53125 -11.765625 C 6.09375 -13.023438 6.652344 -14.144531 7.703125 -15.265625 C 7.914062 -15.476562 8.261719 -15.824219 8.472656 -16.175781 Z M 7.074219 -12.183594 L 6.441406 -11.273438 C 6.863281 -12.042969 7.351562 -12.816406 7.914062 -13.585938 Z M 7.074219 -12.183594" transform="translate(279.85 191.507)"/></g></g></g><g><g><g><path d="M 3.765625 -4.582031 C 5.027344 -4.28125 5.886719 -3.953125 6.34375 -3.582031 C 6.660156 -3.324219 6.816406 -2.992188 6.816406 -2.59375 C 6.816406 -2.191406 6.730469 -1.863281 6.558594 -1.632812 C 6.128906 -1.03125 5.355469 -0.730469 4.269531 -0.730469 C 2.75 -0.730469 1.890625 -1.246094 1.703125 -2.277344 L 0.53125 -2.277344 C 0.875 -0.628906 2.121094 0.1875 4.269531 0.1875 C 5.226562 0.1875 6.03125 -0.015625 6.675781 -0.445312 C 7.449219 -0.945312 7.847656 -1.691406 7.847656 -2.664062 C 7.847656 -3.464844 7.535156 -4.082031 6.902344 -4.511719 C 6.460938 -4.828125 5.742188 -5.113281 4.753906 -5.371094 C 3.753906 -5.628906 3.109375 -5.84375 2.808594 -6 C 2.148438 -6.332031 1.820312 -6.789062 1.832031 -7.390625 C 1.832031 -7.707031 1.890625 -7.976562 2.035156 -8.175781 C 2.40625 -8.734375 3.066406 -9.023438 4.011719 -9.023438 C 5.34375 -9.023438 6.101562 -8.59375 6.300781 -7.761719 L 7.390625 -7.761719 C 7.03125 -9.164062 5.902344 -9.882812 4.011719 -9.882812 C 3.152344 -9.882812 2.390625 -9.652344 1.761719 -9.195312 C 1.117188 -8.734375 0.789062 -8.0625 0.789062 -7.148438 C 0.789062 -5.902344 1.789062 -5.042969 3.765625 -4.582031 Z M 3.765625 -4.582031" transform="translate(122.423 227.174)"/></g></g></g><g><g><g><path d="M 2.078125 -4.828125 L 2.078125 -8.777344 L 4.339844 -8.777344 C 4.925781 -8.777344 5.398438 -8.59375 5.757812 -8.234375 C 6.101562 -7.863281 6.289062 -7.40625 6.289062 -6.832031 C 6.289062 -6.246094 6.101562 -5.773438 5.730469 -5.386719 C 5.355469 -5.011719 4.898438 -4.828125 4.339844 -4.828125 Z M 7.289062 -6.804688 C 7.289062 -7.664062 6.976562 -8.363281 6.375 -8.921875 C 5.773438 -9.464844 5.054688 -9.738281 4.195312 -9.738281 L 1.074219 -9.738281 L 1.074219 0 L 2.078125 0 L 2.078125 -3.851562 L 4.195312 -3.851562 C 5.054688 -3.851562 5.785156 -4.125 6.375 -4.667969 C 6.976562 -5.242188 7.289062 -5.945312 7.289062 -6.804688 Z M 7.289062 -6.804688" transform="translate(132.721 227.174)"/></g></g></g><g><g><g><path d="M 9.652344 -4.898438 C 9.652344 -3.78125 9.25 -2.835938 8.476562 -2.0625 C 7.691406 -1.273438 6.746094 -0.886719 5.644531 -0.886719 C 4.539062 -0.886719 3.59375 -1.273438 2.820312 -2.0625 C 2.035156 -2.835938 1.648438 -3.78125 1.648438 -4.898438 C 1.648438 -5.988281 2.035156 -6.933594 2.820312 -7.71875 C 3.59375 -8.492188 4.539062 -8.894531 5.644531 -8.894531 C 6.746094 -8.894531 7.691406 -8.492188 8.476562 -7.71875 C 9.25 -6.933594 9.652344 -5.988281 9.652344 -4.898438 Z M 10.65625 -4.898438 C 10.65625 -5.585938 10.511719 -6.230469 10.253906 -6.847656 C 9.996094 -7.449219 9.636719 -7.976562 9.179688 -8.433594 C 8.722656 -8.878906 8.191406 -9.238281 7.589844 -9.496094 C 6.976562 -9.753906 6.332031 -9.894531 5.644531 -9.894531 C 4.957031 -9.894531 4.296875 -9.753906 3.695312 -9.496094 C 3.09375 -9.238281 2.5625 -8.878906 2.105469 -8.433594 C 1.648438 -7.976562 1.289062 -7.449219 1.03125 -6.847656 C 0.773438 -6.230469 0.644531 -5.585938 0.644531 -4.898438 C 0.644531 -4.210938 0.773438 -3.550781 1.03125 -2.949219 C 1.289062 -2.335938 1.648438 -1.804688 2.105469 -1.347656 C 2.5625 -0.886719 3.09375 -0.53125 3.695312 -0.273438 C 4.296875 -0.015625 4.957031 0.113281 5.644531 0.113281 C 6.332031 0.113281 6.976562 -0.015625 7.589844 -0.273438 C 8.191406 -0.53125 8.722656 -0.886719 9.179688 -1.347656 C 9.636719 -1.804688 9.996094 -2.335938 10.253906 -2.949219 C 10.511719 -3.550781 10.65625 -4.210938 10.65625 -4.898438 Z M 10.65625 -4.898438" transform="translate(142.374 227.174)"/></g></g></g><g><g><g><path d="M 2.078125 -4.8125 L 2.078125 -8.777344 L 4.339844 -8.777344 C 4.925781 -8.777344 5.398438 -8.59375 5.757812 -8.21875 C 6.101562 -7.847656 6.289062 -7.390625 6.289062 -6.816406 C 6.289062 -6.246094 6.101562 -5.773438 5.730469 -5.386719 C 5.355469 -5 4.898438 -4.8125 4.339844 -4.8125 Z M 7.289062 -6.804688 C 7.289062 -7.632812 6.976562 -8.347656 6.375 -8.90625 C 5.785156 -9.453125 5.054688 -9.738281 4.195312 -9.738281 L 1.074219 -9.738281 L 1.074219 0 L 2.078125 0 L 2.078125 -3.851562 L 3.238281 -3.851562 L 6.101562 0 L 7.449219 0 L 4.441406 -3.851562 C 5.199219 -3.894531 5.84375 -4.167969 6.375 -4.667969 C 6.976562 -5.226562 7.289062 -5.945312 7.289062 -6.804688 Z M 7.289062 -6.804688" transform="translate(155.751 227.174)"/></g></g></g><g><g><g><path d="M 0.285156 -8.835938 L 2.648438 -8.835938 L 2.648438 -0.0273438 L 3.652344 -0.0273438 L 3.652344 -8.835938 L 6.015625 -8.835938 L 6.015625 -9.765625 L 0.285156 -9.765625 Z M 0.285156 -8.835938" transform="translate(165.62 227.174)"/></g></g></g><g><g><g><path d="M 6.859375 0 L 6.859375 -0.929688 L 2.078125 -0.929688 L 2.078125 -4.398438 L 6.71875 -4.398438 L 6.71875 -5.34375 L 2.078125 -5.34375 L 2.078125 -8.808594 L 6.859375 -8.808594 L 6.859375 -9.738281 L 1.074219 -9.738281 L 1.074219 0 Z M 6.859375 0" transform="translate(179.942 227.174)"/></g></g></g><g><g><g><path d="M 2.078125 -7.175781 L 7.546875 0.601562 L 7.546875 -9.738281 L 6.546875 -9.738281 L 6.546875 -2.578125 L 1.074219 -10.355469 L 1.074219 0 L 2.078125 0 Z M 2.078125 -7.175781" transform="translate(189.953 227.174)"/></g></g></g><g><g><g><path d="M 0.285156 -8.835938 L 2.648438 -8.835938 L 2.648438 -0.0273438 L 3.652344 -0.0273438 L 3.652344 -8.835938 L 6.015625 -8.835938 L 6.015625 -9.765625 L 0.285156 -9.765625 Z M 0.285156 -8.835938" transform="translate(200.652 227.174)"/></g></g></g><g><g><g><path d="M 6.859375 0 L 6.859375 -0.929688 L 2.078125 -0.929688 L 2.078125 -4.398438 L 6.71875 -4.398438 L 6.71875 -5.34375 L 2.078125 -5.34375 L 2.078125 -8.808594 L 6.859375 -8.808594 L 6.859375 -9.738281 L 1.074219 -9.738281 L 1.074219 0 Z M 6.859375 0" transform="translate(209.03 227.174)"/></g></g></g><g><g><g><path d="M 2.078125 -4.8125 L 2.078125 -8.777344 L 4.339844 -8.777344 C 4.925781 -8.777344 5.398438 -8.59375 5.757812 -8.21875 C 6.101562 -7.847656 6.289062 -7.390625 6.289062 -6.816406 C 6.289062 -6.246094 6.101562 -5.773438 5.730469 -5.386719 C 5.355469 -5 4.898438 -4.8125 4.339844 -4.8125 Z M 7.289062 -6.804688 C 7.289062 -7.632812 6.976562 -8.347656 6.375 -8.90625 C 5.785156 -9.453125 5.054688 -9.738281 4.195312 -9.738281 L 1.074219 -9.738281 L 1.074219 0 L 2.078125 0 L 2.078125 -3.851562 L 3.238281 -3.851562 L 6.101562 0 L 7.449219 0 L 4.441406 -3.851562 C 5.199219 -3.894531 5.84375 -4.167969 6.375 -4.667969 C 6.976562 -5.226562 7.289062 -5.945312 7.289062 -6.804688 Z M 7.289062 -6.804688" transform="translate(219.042 227.174)"/></g></g></g><g><g><g><path d="M 2.078125 -4.828125 L 2.078125 -8.777344 L 4.339844 -8.777344 C 4.925781 -8.777344 5.398438 -8.59375 5.757812 -8.234375 C 6.101562 -7.863281 6.289062 -7.40625 6.289062 -6.832031 C 6.289062 -6.246094 6.101562 -5.773438 5.730469 -5.386719 C 5.355469 -5.011719 4.898438 -4.828125 4.339844 -4.828125 Z M 7.289062 -6.804688 C 7.289062 -7.664062 6.976562 -8.363281 6.375 -8.921875 C 5.773438 -9.464844 5.054688 -9.738281 4.195312 -9.738281 L 1.074219 -9.738281 L 1.074219 0 L 2.078125 0 L 2.078125 -3.851562 L 4.195312 -3.851562 C 5.054688 -3.851562 5.785156 -4.125 6.375 -4.667969 C 6.976562 -5.242188 7.289062 -5.945312 7.289062 -6.804688 Z M 7.289062 -6.804688" transform="translate(228.91 227.174)"/></g></g></g><g><g><g><path d="M 2.078125 -4.8125 L 2.078125 -8.777344 L 4.339844 -8.777344 C 4.925781 -8.777344 5.398438 -8.59375 5.757812 -8.21875 C 6.101562 -7.847656 6.289062 -7.390625 6.289062 -6.816406 C 6.289062 -6.246094 6.101562 -5.773438 5.730469 -5.386719 C 5.355469 -5 4.898438 -4.8125 4.339844 -4.8125 Z M 7.289062 -6.804688 C 7.289062 -7.632812 6.976562 -8.347656 6.375 -8.90625 C 5.785156 -9.453125 5.054688 -9.738281 4.195312 -9.738281 L 1.074219 -9.738281 L 1.074219 0 L 2.078125 0 L 2.078125 -3.851562 L 3.238281 -3.851562 L 6.101562 0 L 7.449219 0 L 4.441406 -3.851562 C 5.199219 -3.894531 5.84375 -4.167969 6.375 -4.667969 C 6.976562 -5.226562 7.289062 -5.945312 7.289062 -6.804688 Z M 7.289062 -6.804688" transform="translate(238.563 227.174)"/></g></g></g><g><g><g><path d="M 2.078125 0 L 2.078125 -9.738281 L 1.074219 -9.738281 L 1.074219 0 Z M 2.078125 0" transform="translate(248.431 227.174)"/></g></g></g><g><g><g><path d="M 3.765625 -4.582031 C 5.027344 -4.28125 5.886719 -3.953125 6.34375 -3.582031 C 6.660156 -3.324219 6.816406 -2.992188 6.816406 -2.59375 C 6.816406 -2.191406 6.730469 -1.863281 6.558594 -1.632812 C 6.128906 -1.03125 5.355469 -0.730469 4.269531 -0.730469 C 2.75 -0.730469 1.890625 -1.246094 1.703125 -2.277344 L 0.53125 -2.277344 C 0.875 -0.628906 2.121094 0.1875 4.269531 0.1875 C 5.226562 0.1875 6.03125 -0.015625 6.675781 -0.445312 C 7.449219 -0.945312 7.847656 -1.691406 7.847656 -2.664062 C 7.847656 -3.464844 7.535156 -4.082031 6.902344 -4.511719 C 6.460938 -4.828125 5.742188 -5.113281 4.753906 -5.371094 C 3.753906 -5.628906 3.109375 -5.84375 2.808594 -6 C 2.148438 -6.332031 1.820312 -6.789062 1.832031 -7.390625 C 1.832031 -7.707031 1.890625 -7.976562 2.035156 -8.175781 C 2.40625 -8.734375 3.066406 -9.023438 4.011719 -9.023438 C 5.34375 -9.023438 6.101562 -8.59375 6.300781 -7.761719 L 7.390625 -7.761719 C 7.03125 -9.164062 5.902344 -9.882812 4.011719 -9.882812 C 3.152344 -9.882812 2.390625 -9.652344 1.761719 -9.195312 C 1.117188 -8.734375 0.789062 -8.0625 0.789062 -7.148438 C 0.789062 -5.902344 1.789062 -5.042969 3.765625 -4.582031 Z M 3.765625 -4.582031" transform="translate(253.66 227.174)"/></g></g></g><g><g><g><path d="M 6.859375 0 L 6.859375 -0.929688 L 2.078125 -0.929688 L 2.078125 -4.398438 L 6.71875 -4.398438 L 6.71875 -5.34375 L 2.078125 -5.34375 L 2.078125 -8.808594 L 6.859375 -8.808594 L 6.859375 -9.738281 L 1.074219 -9.738281 L 1.074219 0 Z M 6.859375 0" transform="translate(263.957 227.174)"/></g></g></g></svg>