<svg xmlns="http://www.w3.org/2000/svg" width="127.5" viewBox="0 0 127.5 58.5" height="58.5" version="1.0"><defs><clipPath id="a"><path d="M 107 22 L 126.710938 22 L 126.710938 56 L 107 56 Z M 107 22"/></clipPath><clipPath id="b"><path d="M 105 20 L 126.710938 20 L 126.710938 54 L 105 54 Z M 105 20"/></clipPath></defs><g fill="#004AAD" fill-opacity=".4"><g><g><path d="M 35.042969 -27.101562 C 35.003906 -27.179688 35.042969 -27.140625 35.042969 -27.140625 C 34.851562 -27.636719 34.203125 -28.402344 33.59375 -28.285156 C 33.132812 -28.210938 33.289062 -28.019531 33.097656 -27.789062 C 32.332031 -26.875 31.453125 -26.074219 30.730469 -25.15625 C 28.820312 -22.75 27.179688 -20.117188 25.539062 -17.523438 C 23.898438 -14.925781 22.371094 -12.328125 21.109375 -9.542969 C 20.574219 -8.359375 19.851562 -7.292969 19.277344 -6.144531 C 18.476562 -4.582031 17.789062 -2.9375 17.101562 -1.335938 C 17.101562 -1.414062 17.179688 -3.167969 17.0625 -3.09375 C 16.988281 -3.015625 16.949219 -2.976562 16.949219 -2.9375 C 17.027344 -3.777344 17.332031 -4.808594 17.484375 -5.726562 C 17.710938 -7.0625 17.828125 -8.398438 17.941406 -9.734375 C 18.019531 -10.152344 18.703125 -14.316406 19.125 -16.375 C 18.859375 -15.347656 18.550781 -13.894531 18.476562 -13.742188 C 18.820312 -15.535156 19.203125 -17.332031 19.8125 -19.085938 C 19.773438 -18.933594 19.773438 -18.78125 19.851562 -18.78125 C 19.964844 -18.78125 20.382812 -20.003906 20.269531 -20.042969 L 20.117188 -19.925781 C 20.269531 -20.269531 20.574219 -20.308594 20.539062 -20.882812 C 20.5 -21.414062 20.230469 -21.910156 19.8125 -22.253906 C 19.507812 -22.5625 18.933594 -22.902344 18.476562 -22.789062 C 18.054688 -22.675781 18.09375 -22.445312 17.941406 -22.253906 C 16.492188 -20.421875 14.734375 -18.4375 13.324219 -16.414062 C 12.863281 -15.804688 12.636719 -15.15625 12.175781 -14.507812 C 11.335938 -13.4375 10.574219 -12.292969 9.695312 -11.261719 C 8.816406 -10.152344 8.320312 -9.007812 7.519531 -7.902344 L 5.496094 -5 C 6.183594 -7.519531 6.605469 -10.078125 7.101562 -12.636719 C 7.214844 -13.285156 8.472656 -20.230469 8.472656 -20.230469 C 8.4375 -20.230469 7.671875 -16.1875 7.558594 -15.765625 C 7.976562 -17.980469 8.4375 -20.269531 8.664062 -22.523438 C 8.664062 -22.5625 8.628906 -21.835938 8.664062 -21.875 C 8.855469 -21.875 8.933594 -23.476562 8.78125 -23.4375 C 8.742188 -23.402344 8.703125 -23.363281 8.703125 -23.324219 C 8.703125 -23.667969 8.894531 -23.933594 8.894531 -24.429688 C 8.855469 -25.234375 8.742188 -25.996094 8.398438 -26.722656 C 8.132812 -27.292969 7.75 -27.90625 7.101562 -28.019531 C 6.949219 -28.058594 6.910156 -27.941406 6.71875 -27.980469 C 6.527344 -27.980469 6.488281 -28.132812 6.296875 -28.132812 C 5.457031 -28.097656 4.808594 -27.292969 4.503906 -26.605469 C 4.085938 -25.804688 3.589844 -23.058594 5.34375 -24.242188 C 5.34375 -24.050781 5.230469 -22.21875 5.191406 -22.101562 C 5.269531 -22.140625 5.269531 -22.21875 5.304688 -22.292969 C 5.269531 -21.910156 5.230469 -21.566406 5.152344 -21.222656 C 5.117188 -21.261719 5.191406 -21.53125 5.117188 -21.53125 C 4.773438 -21.53125 4.429688 -18.207031 4.429688 -17.789062 C 4.390625 -17.027344 4.238281 -16.339844 4.046875 -15.574219 C 3.96875 -15.230469 3.894531 -14.886719 3.855469 -14.542969 C 3.816406 -14.507812 3.777344 -13.628906 3.894531 -13.855469 C 3.894531 -13.78125 3.855469 -13.742188 3.855469 -13.667969 C 3.816406 -13.703125 3.816406 -13.742188 3.816406 -13.78125 C 3.777344 -13.742188 3.589844 -12.519531 3.550781 -12.484375 C 3.359375 -11.832031 3.09375 -11.261719 2.902344 -10.613281 C 2.480469 -9.085938 2.253906 -7.519531 1.871094 -5.992188 C 2.863281 -9.007812 3.777344 -12.214844 4.429688 -15.308594 C 4.925781 -17.789062 5.613281 -20.460938 5.800781 -23.019531 C 5.613281 -19.886719 5 -16.71875 4.238281 -13.742188 C 3.777344 -11.910156 3.28125 -10.078125 2.785156 -8.246094 C 2.289062 -6.375 1.449219 -4.582031 0.992188 -2.671875 C 0.761719 -1.792969 0.574219 -1.105469 0.265625 -0.230469 C -0.0390625 0.648438 -0.265625 1.601562 0.6875 2.175781 C 1.679688 2.75 3.472656 2.519531 3.96875 1.375 C 4.046875 1.183594 4.085938 0.992188 4.121094 0.800781 C 4.464844 -0.304688 5.230469 -1.296875 5.800781 -2.289062 C 6.832031 -4.085938 7.902344 -5.878906 9.085938 -7.597656 C 10.308594 -9.46875 11.566406 -11.261719 12.710938 -13.167969 C 13.246094 -14.046875 14.046875 -14.8125 14.660156 -15.652344 L 16.109375 -17.523438 C 16.03125 -17.332031 15.574219 -15.230469 15.535156 -15.230469 C 15.574219 -15.230469 15.574219 -15.269531 15.613281 -15.269531 C 15.535156 -15.039062 15.5 -14.773438 15.460938 -14.542969 C 15.382812 -14.542969 15.5 -14.773438 15.421875 -14.773438 C 14.925781 -14.847656 14.621094 -11.644531 14.621094 -11.414062 C 14.542969 -10.804688 14.351562 -10.191406 14.238281 -9.582031 C 14.125 -9.085938 14.199219 -8.664062 14.199219 -8.320312 C 14.164062 -8.398438 14.164062 -7.902344 14.125 -7.789062 C 14.085938 -7.367188 13.972656 -7.214844 13.855469 -6.832031 C 13.550781 -5.957031 13.476562 -4.925781 13.4375 -4.046875 C 13.398438 -2.367188 13.207031 -0.535156 13.4375 1.105469 C 13.589844 2.40625 14.847656 3.511719 16.1875 3.398438 C 16.910156 3.320312 17.0625 3.015625 17.214844 2.40625 C 17.332031 1.871094 17.597656 1.335938 17.867188 0.761719 C 18.820312 -1.257812 19.773438 -3.320312 20.84375 -5.269531 C 21.53125 -6.527344 21.910156 -7.789062 22.597656 -8.972656 C 23.515625 -10.574219 24.394531 -12.175781 25.386719 -13.703125 C 25.84375 -14.429688 26.1875 -15.15625 26.492188 -15.878906 C 26.914062 -16.796875 27.714844 -17.597656 28.285156 -18.4375 C 28.9375 -19.355469 29.507812 -20.269531 30.234375 -21.1875 C 30.882812 -21.988281 31.683594 -22.789062 32.21875 -23.667969 C 32.449219 -24.050781 32.292969 -24.050781 32.636719 -24.394531 C 32.867188 -24.621094 33.210938 -24.890625 33.515625 -25.117188 C 34.128906 -25.613281 35.347656 -26.109375 35.042969 -27.101562 Z M 18.09375 -12.328125 C 18.054688 -12.214844 18.171875 -12.484375 18.285156 -12.75 C 18.285156 -12.789062 18.324219 -12.828125 18.324219 -12.863281 C 18.207031 -12.328125 18.09375 -11.910156 18.019531 -11.453125 C 18.019531 -11.71875 17.980469 -11.949219 18.09375 -12.328125 Z M 19.46875 -17.484375 C 19.429688 -17.484375 19.355469 -17.292969 19.277344 -16.910156 C 19.355469 -17.253906 19.46875 -17.484375 19.46875 -17.484375 Z M 19.46875 -17.484375" transform="translate(3.692 38.433)"/></g></g></g><g fill="#004AAD" fill-opacity=".4"><g><g><path d="M 14.621094 -9.429688 C 14.621094 -9.390625 14.621094 -9.390625 14.582031 -9.429688 L 14.582031 -9.46875 C 13.972656 -10.496094 13.167969 -9.085938 12.828125 -8.589844 C 12.175781 -7.710938 11.566406 -6.871094 10.878906 -6.070312 C 10.308594 -5.382812 9.695312 -4.695312 9.238281 -3.96875 C 9.238281 -3.894531 9.160156 -3.703125 9.160156 -3.703125 C 9.007812 -3.472656 8.78125 -3.28125 8.589844 -3.054688 C 8.246094 -2.710938 7.902344 -2.328125 7.519531 -1.984375 C 6.949219 -1.449219 3.742188 1.566406 3.320312 -0.382812 C 3.09375 -1.335938 3.398438 -2.519531 3.589844 -3.4375 C 3.703125 -3.933594 3.816406 -4.390625 3.894531 -4.886719 C 3.96875 -5.269531 3.855469 -5.648438 4.046875 -6.03125 C 4.160156 -6.261719 4.199219 -6.222656 4.464844 -6.296875 L 5.117188 -6.527344 C 5.535156 -6.679688 5.957031 -6.832031 6.335938 -7.0625 C 6.910156 -7.40625 7.445312 -7.824219 7.941406 -8.246094 C 9.125 -9.238281 10.382812 -10.421875 10.878906 -11.910156 C 11.148438 -12.75 11.183594 -13.667969 10.652344 -14.390625 C 10.152344 -15.039062 9.3125 -15.382812 8.550781 -15.535156 C 6.488281 -15.917969 4.925781 -14.734375 3.742188 -13.167969 C 2.289062 -11.375 1.257812 -9.160156 0.761719 -6.910156 C 0.496094 -5.800781 0.34375 -4.695312 0.152344 -3.550781 C -0.0390625 -2.40625 -0.152344 -1.335938 0.457031 -0.265625 C 0.417969 -0.648438 0.34375 -0.992188 0.34375 -1.335938 C 0.34375 -1.527344 0.417969 -1.71875 0.417969 -1.871094 C 0.417969 -1.945312 0.34375 -2.175781 0.34375 -2.289062 C 0.34375 -2.632812 0.417969 -2.902344 0.496094 -3.246094 C 0.535156 -3.589844 0.496094 -3.933594 0.535156 -4.277344 C 0.574219 -4.65625 0.726562 -4.960938 0.878906 -5.304688 C 0.992188 -5.613281 1.03125 -5.878906 1.144531 -6.183594 C 1.257812 -6.453125 1.335938 -6.757812 1.449219 -7.0625 C 1.488281 -7.253906 1.679688 -7.480469 1.792969 -7.710938 C 1.679688 -7.367188 1.449219 -7.0625 1.375 -6.757812 C 1.257812 -6.296875 1.335938 -5.800781 1.296875 -5.34375 C 1.222656 -4.847656 1.070312 -4.351562 0.992188 -3.816406 C 0.917969 -3.320312 0.6875 -2.863281 0.609375 -2.367188 C 0.535156 -1.910156 0.382812 -1.566406 0.417969 -1.105469 C 0.417969 -0.839844 0.457031 -0.574219 0.496094 -0.34375 C 0.535156 -0.0390625 0.726562 0.152344 0.917969 0.382812 C 1.566406 1.144531 2.441406 1.757812 3.4375 2.023438 C 4.121094 2.214844 4.734375 2.175781 5.382812 1.832031 C 6.296875 1.335938 7.101562 0.574219 7.789062 -0.152344 C 8.4375 -0.878906 8.933594 -1.679688 9.503906 -2.441406 C 10.039062 -3.128906 10.6875 -3.777344 11.222656 -4.464844 L 13.285156 -7.136719 L 14.46875 -8.703125 C 14.660156 -8.933594 14.773438 -9.125 14.621094 -9.429688 Z M 5.152344 -9.007812 C 5.191406 -9.085938 5.191406 -9.125 5.191406 -9.125 C 5.765625 -10.34375 6.183594 -11.644531 6.984375 -12.828125 L 7.671875 -13.742188 C 7.824219 -13.933594 8.09375 -14.277344 8.359375 -14.351562 C 8.933594 -14.46875 9.085938 -13.476562 9.046875 -13.09375 L 8.894531 -12.292969 C 8.855469 -12.0625 8.933594 -11.910156 8.894531 -11.71875 C 8.816406 -11.492188 8.628906 -11.375 8.511719 -11.183594 L 7.863281 -10.34375 C 6.984375 -9.3125 5.878906 -8.4375 4.65625 -7.789062 C 4.847656 -8.207031 4.960938 -8.628906 5.152344 -9.007812 Z M 5.152344 -9.007812" transform="translate(29.528 38.433)"/></g></g></g><g fill="#004AAD" fill-opacity=".4"><g><g><path d="M 10 -9.390625 C 9.925781 -9.886719 9.390625 -9.734375 9.125 -9.542969 C 8.78125 -9.3125 6.871094 -6.792969 7.023438 -6.605469 C 7.136719 -6.605469 7.214844 -6.605469 7.292969 -6.679688 C 6.757812 -6.03125 5.765625 -5.304688 5.039062 -4.734375 C 4.617188 -4.390625 3.589844 -3.4375 2.976562 -3.742188 C 1.679688 -4.390625 4.3125 -8.972656 4.199219 -9.007812 C 4.085938 -9.046875 3.128906 -6.910156 2.9375 -6.414062 C 3.398438 -7.75 4.007812 -9.085938 4.734375 -10.269531 C 4.695312 -10.152344 4.582031 -9.964844 4.65625 -9.964844 C 4.734375 -9.925781 5.304688 -10.726562 5.191406 -10.804688 C 5.152344 -10.804688 5.078125 -10.804688 5.039062 -10.765625 C 5.152344 -10.878906 5.34375 -10.917969 5.34375 -11.148438 C 5.34375 -11.527344 4.464844 -11.910156 4.160156 -12.023438 C 3.4375 -12.328125 2.710938 -12.40625 2.136719 -12.023438 C 1.375 -11.566406 1.222656 -10.652344 0.917969 -9.847656 C 0.839844 -9.621094 0.113281 -6.910156 0.265625 -6.871094 C 0.34375 -6.910156 0.34375 -6.949219 0.382812 -7.023438 L 0.265625 -6.335938 C 0.230469 -6.335938 0.304688 -6.527344 0.230469 -6.527344 C -0.078125 -6.527344 0 -5.152344 0.0390625 -4.960938 C 0.191406 -4.277344 0.726562 -3.777344 1.144531 -3.207031 C 1.375 -2.863281 1.601562 -2.519531 1.945312 -2.289062 C 2.40625 -1.945312 2.097656 -2.289062 2.40625 -2.136719 L 2.328125 -2.136719 C 2.289062 -1.910156 3.742188 -1.527344 4.046875 -1.566406 C 5.382812 -1.871094 6.335938 -3.511719 7.101562 -4.542969 C 7.824219 -5.457031 8.4375 -6.375 9.085938 -7.328125 C 9.46875 -7.824219 10.152344 -8.664062 10 -9.390625 Z M 3.320312 -14.199219 C 3.398438 -14.085938 3.28125 -13.933594 3.550781 -13.78125 C 3.816406 -13.667969 3.96875 -13.820312 4.199219 -13.894531 C 4.65625 -14.085938 5 -14.582031 5.34375 -14.886719 C 5.457031 -14.964844 5.230469 -14.925781 5.230469 -14.925781 C 5.726562 -15.382812 5.304688 -14.847656 5.765625 -15.117188 C 6.222656 -15.421875 6.296875 -15.917969 6.679688 -16.339844 C 6.222656 -16.148438 5.878906 -15.878906 5.574219 -15.5 C 5.191406 -15.003906 4.925781 -14.773438 4.503906 -14.507812 C 4.960938 -14.847656 5.191406 -15.191406 5.574219 -15.804688 C 5.6875 -15.917969 5.800781 -15.996094 5.957031 -16.070312 C 5.839844 -16.1875 5.839844 -16.300781 5.992188 -16.414062 C 6.109375 -16.605469 6.335938 -16.683594 6.453125 -16.871094 C 6.640625 -17.140625 6.605469 -17.484375 6.832031 -17.75 C 7.023438 -17.902344 7.292969 -18.019531 7.445312 -18.171875 C 7.789062 -18.476562 8.167969 -19.046875 8.015625 -19.542969 C 7.863281 -20.003906 7.480469 -20.574219 7.0625 -20.84375 C 6.566406 -21.109375 5.878906 -21.222656 5.34375 -20.996094 C 5.230469 -20.957031 4.773438 -20.84375 4.925781 -20.691406 C 4.960938 -20.613281 5 -20.613281 5.078125 -20.613281 C 4.734375 -20.347656 4.160156 -19.886719 4.960938 -19.582031 C 4.886719 -19.507812 4.960938 -19.164062 4.960938 -19.125 C 4.925781 -18.859375 4.390625 -17.445312 4.046875 -16.757812 L 4.503906 -17.445312 C 4.238281 -16.871094 3.933594 -16.339844 3.589844 -15.878906 C 3.816406 -16.375 3.359375 -15.804688 3.359375 -15.6875 C 2.9375 -15.878906 3.054688 -14.695312 3.09375 -14.582031 C 3.09375 -14.542969 3.320312 -14.199219 3.320312 -14.199219 Z M 2.597656 -5.117188 L 2.597656 -5.078125 L 2.519531 -4.847656 L 2.597656 -5.152344 C 2.632812 -5.191406 2.632812 -5.191406 2.597656 -5.117188 Z M 3.855469 -16.453125 C 3.855469 -16.453125 3.933594 -16.527344 4.007812 -16.683594 Z M 3.472656 -15.726562 C 3.472656 -15.6875 3.472656 -15.6875 3.4375 -15.652344 C 3.4375 -15.652344 3.4375 -15.6875 3.398438 -15.6875 C 3.4375 -15.6875 3.4375 -15.6875 3.472656 -15.726562 Z M 3.472656 -15.726562" transform="translate(41.396 38.433)"/></g></g></g><g fill="#004AAD"><g><g><path d="M 35.042969 -27.101562 C 35.003906 -27.179688 35.042969 -27.140625 35.042969 -27.140625 C 34.851562 -27.636719 34.203125 -28.402344 33.59375 -28.285156 C 33.132812 -28.210938 33.289062 -28.019531 33.097656 -27.789062 C 32.332031 -26.875 31.453125 -26.074219 30.730469 -25.15625 C 28.820312 -22.75 27.179688 -20.117188 25.539062 -17.523438 C 23.898438 -14.925781 22.371094 -12.328125 21.109375 -9.542969 C 20.574219 -8.359375 19.851562 -7.292969 19.277344 -6.144531 C 18.476562 -4.582031 17.789062 -2.9375 17.101562 -1.335938 C 17.101562 -1.414062 17.179688 -3.167969 17.0625 -3.09375 C 16.988281 -3.015625 16.949219 -2.976562 16.949219 -2.9375 C 17.027344 -3.777344 17.332031 -4.808594 17.484375 -5.726562 C 17.710938 -7.0625 17.828125 -8.398438 17.941406 -9.734375 C 18.019531 -10.152344 18.703125 -14.316406 19.125 -16.375 C 18.859375 -15.347656 18.550781 -13.894531 18.476562 -13.742188 C 18.820312 -15.535156 19.203125 -17.332031 19.8125 -19.085938 C 19.773438 -18.933594 19.773438 -18.78125 19.851562 -18.78125 C 19.964844 -18.78125 20.382812 -20.003906 20.269531 -20.042969 L 20.117188 -19.925781 C 20.269531 -20.269531 20.574219 -20.308594 20.539062 -20.882812 C 20.5 -21.414062 20.230469 -21.910156 19.8125 -22.253906 C 19.507812 -22.5625 18.933594 -22.902344 18.476562 -22.789062 C 18.054688 -22.675781 18.09375 -22.445312 17.941406 -22.253906 C 16.492188 -20.421875 14.734375 -18.4375 13.324219 -16.414062 C 12.863281 -15.804688 12.636719 -15.15625 12.175781 -14.507812 C 11.335938 -13.4375 10.574219 -12.292969 9.695312 -11.261719 C 8.816406 -10.152344 8.320312 -9.007812 7.519531 -7.902344 L 5.496094 -5 C 6.183594 -7.519531 6.605469 -10.078125 7.101562 -12.636719 C 7.214844 -13.285156 8.472656 -20.230469 8.472656 -20.230469 C 8.4375 -20.230469 7.671875 -16.1875 7.558594 -15.765625 C 7.976562 -17.980469 8.4375 -20.269531 8.664062 -22.523438 C 8.664062 -22.5625 8.628906 -21.835938 8.664062 -21.875 C 8.855469 -21.875 8.933594 -23.476562 8.78125 -23.4375 C 8.742188 -23.402344 8.703125 -23.363281 8.703125 -23.324219 C 8.703125 -23.667969 8.894531 -23.933594 8.894531 -24.429688 C 8.855469 -25.234375 8.742188 -25.996094 8.398438 -26.722656 C 8.132812 -27.292969 7.75 -27.90625 7.101562 -28.019531 C 6.949219 -28.058594 6.910156 -27.941406 6.71875 -27.980469 C 6.527344 -27.980469 6.488281 -28.132812 6.296875 -28.132812 C 5.457031 -28.097656 4.808594 -27.292969 4.503906 -26.605469 C 4.085938 -25.804688 3.589844 -23.058594 5.34375 -24.242188 C 5.34375 -24.050781 5.230469 -22.21875 5.191406 -22.101562 C 5.269531 -22.140625 5.269531 -22.21875 5.304688 -22.292969 C 5.269531 -21.910156 5.230469 -21.566406 5.152344 -21.222656 C 5.117188 -21.261719 5.191406 -21.53125 5.117188 -21.53125 C 4.773438 -21.53125 4.429688 -18.207031 4.429688 -17.789062 C 4.390625 -17.027344 4.238281 -16.339844 4.046875 -15.574219 C 3.96875 -15.230469 3.894531 -14.886719 3.855469 -14.542969 C 3.816406 -14.507812 3.777344 -13.628906 3.894531 -13.855469 C 3.894531 -13.78125 3.855469 -13.742188 3.855469 -13.667969 C 3.816406 -13.703125 3.816406 -13.742188 3.816406 -13.78125 C 3.777344 -13.742188 3.589844 -12.519531 3.550781 -12.484375 C 3.359375 -11.832031 3.09375 -11.261719 2.902344 -10.613281 C 2.480469 -9.085938 2.253906 -7.519531 1.871094 -5.992188 C 2.863281 -9.007812 3.777344 -12.214844 4.429688 -15.308594 C 4.925781 -17.789062 5.613281 -20.460938 5.800781 -23.019531 C 5.613281 -19.886719 5 -16.71875 4.238281 -13.742188 C 3.777344 -11.910156 3.28125 -10.078125 2.785156 -8.246094 C 2.289062 -6.375 1.449219 -4.582031 0.992188 -2.671875 C 0.761719 -1.792969 0.574219 -1.105469 0.265625 -0.230469 C -0.0390625 0.648438 -0.265625 1.601562 0.6875 2.175781 C 1.679688 2.75 3.472656 2.519531 3.96875 1.375 C 4.046875 1.183594 4.085938 0.992188 4.121094 0.800781 C 4.464844 -0.304688 5.230469 -1.296875 5.800781 -2.289062 C 6.832031 -4.085938 7.902344 -5.878906 9.085938 -7.597656 C 10.308594 -9.46875 11.566406 -11.261719 12.710938 -13.167969 C 13.246094 -14.046875 14.046875 -14.8125 14.660156 -15.652344 L 16.109375 -17.523438 C 16.03125 -17.332031 15.574219 -15.230469 15.535156 -15.230469 C 15.574219 -15.230469 15.574219 -15.269531 15.613281 -15.269531 C 15.535156 -15.039062 15.5 -14.773438 15.460938 -14.542969 C 15.382812 -14.542969 15.5 -14.773438 15.421875 -14.773438 C 14.925781 -14.847656 14.621094 -11.644531 14.621094 -11.414062 C 14.542969 -10.804688 14.351562 -10.191406 14.238281 -9.582031 C 14.125 -9.085938 14.199219 -8.664062 14.199219 -8.320312 C 14.164062 -8.398438 14.164062 -7.902344 14.125 -7.789062 C 14.085938 -7.367188 13.972656 -7.214844 13.855469 -6.832031 C 13.550781 -5.957031 13.476562 -4.925781 13.4375 -4.046875 C 13.398438 -2.367188 13.207031 -0.535156 13.4375 1.105469 C 13.589844 2.40625 14.847656 3.511719 16.1875 3.398438 C 16.910156 3.320312 17.0625 3.015625 17.214844 2.40625 C 17.332031 1.871094 17.597656 1.335938 17.867188 0.761719 C 18.820312 -1.257812 19.773438 -3.320312 20.84375 -5.269531 C 21.53125 -6.527344 21.910156 -7.789062 22.597656 -8.972656 C 23.515625 -10.574219 24.394531 -12.175781 25.386719 -13.703125 C 25.84375 -14.429688 26.1875 -15.15625 26.492188 -15.878906 C 26.914062 -16.796875 27.714844 -17.597656 28.285156 -18.4375 C 28.9375 -19.355469 29.507812 -20.269531 30.234375 -21.1875 C 30.882812 -21.988281 31.683594 -22.789062 32.21875 -23.667969 C 32.449219 -24.050781 32.292969 -24.050781 32.636719 -24.394531 C 32.867188 -24.621094 33.210938 -24.890625 33.515625 -25.117188 C 34.128906 -25.613281 35.347656 -26.109375 35.042969 -27.101562 Z M 18.09375 -12.328125 C 18.054688 -12.214844 18.171875 -12.484375 18.285156 -12.75 C 18.285156 -12.789062 18.324219 -12.828125 18.324219 -12.863281 C 18.207031 -12.328125 18.09375 -11.910156 18.019531 -11.453125 C 18.019531 -11.71875 17.980469 -11.949219 18.09375 -12.328125 Z M 19.46875 -17.484375 C 19.429688 -17.484375 19.355469 -17.292969 19.277344 -16.910156 C 19.355469 -17.253906 19.46875 -17.484375 19.46875 -17.484375 Z M 19.46875 -17.484375" transform="translate(2.005 36.745)"/></g></g></g><g fill="#004AAD"><g><g><path d="M 14.621094 -9.429688 C 14.621094 -9.390625 14.621094 -9.390625 14.582031 -9.429688 L 14.582031 -9.46875 C 13.972656 -10.496094 13.167969 -9.085938 12.828125 -8.589844 C 12.175781 -7.710938 11.566406 -6.871094 10.878906 -6.070312 C 10.308594 -5.382812 9.695312 -4.695312 9.238281 -3.96875 C 9.238281 -3.894531 9.160156 -3.703125 9.160156 -3.703125 C 9.007812 -3.472656 8.78125 -3.28125 8.589844 -3.054688 C 8.246094 -2.710938 7.902344 -2.328125 7.519531 -1.984375 C 6.949219 -1.449219 3.742188 1.566406 3.320312 -0.382812 C 3.09375 -1.335938 3.398438 -2.519531 3.589844 -3.4375 C 3.703125 -3.933594 3.816406 -4.390625 3.894531 -4.886719 C 3.96875 -5.269531 3.855469 -5.648438 4.046875 -6.03125 C 4.160156 -6.261719 4.199219 -6.222656 4.464844 -6.296875 L 5.117188 -6.527344 C 5.535156 -6.679688 5.957031 -6.832031 6.335938 -7.0625 C 6.910156 -7.40625 7.445312 -7.824219 7.941406 -8.246094 C 9.125 -9.238281 10.382812 -10.421875 10.878906 -11.910156 C 11.148438 -12.75 11.183594 -13.667969 10.652344 -14.390625 C 10.152344 -15.039062 9.3125 -15.382812 8.550781 -15.535156 C 6.488281 -15.917969 4.925781 -14.734375 3.742188 -13.167969 C 2.289062 -11.375 1.257812 -9.160156 0.761719 -6.910156 C 0.496094 -5.800781 0.34375 -4.695312 0.152344 -3.550781 C -0.0390625 -2.40625 -0.152344 -1.335938 0.457031 -0.265625 C 0.417969 -0.648438 0.34375 -0.992188 0.34375 -1.335938 C 0.34375 -1.527344 0.417969 -1.71875 0.417969 -1.871094 C 0.417969 -1.945312 0.34375 -2.175781 0.34375 -2.289062 C 0.34375 -2.632812 0.417969 -2.902344 0.496094 -3.246094 C 0.535156 -3.589844 0.496094 -3.933594 0.535156 -4.277344 C 0.574219 -4.65625 0.726562 -4.960938 0.878906 -5.304688 C 0.992188 -5.613281 1.03125 -5.878906 1.144531 -6.183594 C 1.257812 -6.453125 1.335938 -6.757812 1.449219 -7.0625 C 1.488281 -7.253906 1.679688 -7.480469 1.792969 -7.710938 C 1.679688 -7.367188 1.449219 -7.0625 1.375 -6.757812 C 1.257812 -6.296875 1.335938 -5.800781 1.296875 -5.34375 C 1.222656 -4.847656 1.070312 -4.351562 0.992188 -3.816406 C 0.917969 -3.320312 0.6875 -2.863281 0.609375 -2.367188 C 0.535156 -1.910156 0.382812 -1.566406 0.417969 -1.105469 C 0.417969 -0.839844 0.457031 -0.574219 0.496094 -0.34375 C 0.535156 -0.0390625 0.726562 0.152344 0.917969 0.382812 C 1.566406 1.144531 2.441406 1.757812 3.4375 2.023438 C 4.121094 2.214844 4.734375 2.175781 5.382812 1.832031 C 6.296875 1.335938 7.101562 0.574219 7.789062 -0.152344 C 8.4375 -0.878906 8.933594 -1.679688 9.503906 -2.441406 C 10.039062 -3.128906 10.6875 -3.777344 11.222656 -4.464844 L 13.285156 -7.136719 L 14.46875 -8.703125 C 14.660156 -8.933594 14.773438 -9.125 14.621094 -9.429688 Z M 5.152344 -9.007812 C 5.191406 -9.085938 5.191406 -9.125 5.191406 -9.125 C 5.765625 -10.34375 6.183594 -11.644531 6.984375 -12.828125 L 7.671875 -13.742188 C 7.824219 -13.933594 8.09375 -14.277344 8.359375 -14.351562 C 8.933594 -14.46875 9.085938 -13.476562 9.046875 -13.09375 L 8.894531 -12.292969 C 8.855469 -12.0625 8.933594 -11.910156 8.894531 -11.71875 C 8.816406 -11.492188 8.628906 -11.375 8.511719 -11.183594 L 7.863281 -10.34375 C 6.984375 -9.3125 5.878906 -8.4375 4.65625 -7.789062 C 4.847656 -8.207031 4.960938 -8.628906 5.152344 -9.007812 Z M 5.152344 -9.007812" transform="translate(27.84 36.745)"/></g></g></g><g fill="#004AAD"><g><g><path d="M 10 -9.390625 C 9.925781 -9.886719 9.390625 -9.734375 9.125 -9.542969 C 8.78125 -9.3125 6.871094 -6.792969 7.023438 -6.605469 C 7.136719 -6.605469 7.214844 -6.605469 7.292969 -6.679688 C 6.757812 -6.03125 5.765625 -5.304688 5.039062 -4.734375 C 4.617188 -4.390625 3.589844 -3.4375 2.976562 -3.742188 C 1.679688 -4.390625 4.3125 -8.972656 4.199219 -9.007812 C 4.085938 -9.046875 3.128906 -6.910156 2.9375 -6.414062 C 3.398438 -7.75 4.007812 -9.085938 4.734375 -10.269531 C 4.695312 -10.152344 4.582031 -9.964844 4.65625 -9.964844 C 4.734375 -9.925781 5.304688 -10.726562 5.191406 -10.804688 C 5.152344 -10.804688 5.078125 -10.804688 5.039062 -10.765625 C 5.152344 -10.878906 5.34375 -10.917969 5.34375 -11.148438 C 5.34375 -11.527344 4.464844 -11.910156 4.160156 -12.023438 C 3.4375 -12.328125 2.710938 -12.40625 2.136719 -12.023438 C 1.375 -11.566406 1.222656 -10.652344 0.917969 -9.847656 C 0.839844 -9.621094 0.113281 -6.910156 0.265625 -6.871094 C 0.34375 -6.910156 0.34375 -6.949219 0.382812 -7.023438 L 0.265625 -6.335938 C 0.230469 -6.335938 0.304688 -6.527344 0.230469 -6.527344 C -0.078125 -6.527344 0 -5.152344 0.0390625 -4.960938 C 0.191406 -4.277344 0.726562 -3.777344 1.144531 -3.207031 C 1.375 -2.863281 1.601562 -2.519531 1.945312 -2.289062 C 2.40625 -1.945312 2.097656 -2.289062 2.40625 -2.136719 L 2.328125 -2.136719 C 2.289062 -1.910156 3.742188 -1.527344 4.046875 -1.566406 C 5.382812 -1.871094 6.335938 -3.511719 7.101562 -4.542969 C 7.824219 -5.457031 8.4375 -6.375 9.085938 -7.328125 C 9.46875 -7.824219 10.152344 -8.664062 10 -9.390625 Z M 3.320312 -14.199219 C 3.398438 -14.085938 3.28125 -13.933594 3.550781 -13.78125 C 3.816406 -13.667969 3.96875 -13.820312 4.199219 -13.894531 C 4.65625 -14.085938 5 -14.582031 5.34375 -14.886719 C 5.457031 -14.964844 5.230469 -14.925781 5.230469 -14.925781 C 5.726562 -15.382812 5.304688 -14.847656 5.765625 -15.117188 C 6.222656 -15.421875 6.296875 -15.917969 6.679688 -16.339844 C 6.222656 -16.148438 5.878906 -15.878906 5.574219 -15.5 C 5.191406 -15.003906 4.925781 -14.773438 4.503906 -14.507812 C 4.960938 -14.847656 5.191406 -15.191406 5.574219 -15.804688 C 5.6875 -15.917969 5.800781 -15.996094 5.957031 -16.070312 C 5.839844 -16.1875 5.839844 -16.300781 5.992188 -16.414062 C 6.109375 -16.605469 6.335938 -16.683594 6.453125 -16.871094 C 6.640625 -17.140625 6.605469 -17.484375 6.832031 -17.75 C 7.023438 -17.902344 7.292969 -18.019531 7.445312 -18.171875 C 7.789062 -18.476562 8.167969 -19.046875 8.015625 -19.542969 C 7.863281 -20.003906 7.480469 -20.574219 7.0625 -20.84375 C 6.566406 -21.109375 5.878906 -21.222656 5.34375 -20.996094 C 5.230469 -20.957031 4.773438 -20.84375 4.925781 -20.691406 C 4.960938 -20.613281 5 -20.613281 5.078125 -20.613281 C 4.734375 -20.347656 4.160156 -19.886719 4.960938 -19.582031 C 4.886719 -19.507812 4.960938 -19.164062 4.960938 -19.125 C 4.925781 -18.859375 4.390625 -17.445312 4.046875 -16.757812 L 4.503906 -17.445312 C 4.238281 -16.871094 3.933594 -16.339844 3.589844 -15.878906 C 3.816406 -16.375 3.359375 -15.804688 3.359375 -15.6875 C 2.9375 -15.878906 3.054688 -14.695312 3.09375 -14.582031 C 3.09375 -14.542969 3.320312 -14.199219 3.320312 -14.199219 Z M 2.597656 -5.117188 L 2.597656 -5.078125 L 2.519531 -4.847656 L 2.597656 -5.152344 C 2.632812 -5.191406 2.632812 -5.191406 2.597656 -5.117188 Z M 3.855469 -16.453125 C 3.855469 -16.453125 3.933594 -16.527344 4.007812 -16.683594 Z M 3.472656 -15.726562 C 3.472656 -15.6875 3.472656 -15.6875 3.4375 -15.652344 C 3.4375 -15.652344 3.4375 -15.6875 3.398438 -15.6875 C 3.4375 -15.6875 3.4375 -15.6875 3.472656 -15.726562 Z M 3.472656 -15.726562" transform="translate(39.709 36.745)"/></g></g></g><g fill="#004AAD" fill-opacity=".4"><g><g><path d="M 18.132812 -5.039062 C 17.292969 -5.117188 16.375 -5.152344 15.5 -5.117188 C 12.863281 -4.960938 10.230469 -4.3125 7.710938 -3.550781 C 9.621094 -8.398438 10.574219 -13.550781 12.214844 -18.515625 C 13.015625 -20.917969 13.894531 -23.589844 15.460938 -25.613281 C 15.804688 -26.074219 16.644531 -27.101562 17.367188 -26.914062 C 17.980469 -26.722656 17.675781 -25.15625 17.558594 -24.738281 C 17.710938 -25.269531 18.363281 -27.445312 16.796875 -26.875 C 15.117188 -26.261719 14.125 -23.820312 13.476562 -22.332031 C 14.046875 -23.707031 14.695312 -25.234375 15.765625 -26.300781 C 16.222656 -26.722656 17.332031 -27.5625 17.828125 -26.835938 C 18.285156 -26.148438 17.710938 -24.582031 17.523438 -23.933594 C 17.140625 -22.675781 16.644531 -21.414062 16.070312 -20.230469 C 16.070312 -20.308594 16.566406 -21.53125 16.527344 -21.53125 C 16.375 -21.566406 15.039062 -18.78125 15.039062 -18.742188 L 15.078125 -18.742188 C 15.039062 -18.667969 14.964844 -18.628906 14.964844 -18.628906 C 14.660156 -18.054688 15.269531 -17.789062 15.765625 -17.75 C 16.527344 -17.675781 17.367188 -18.054688 17.980469 -18.515625 C 19.582031 -19.734375 20.957031 -22.597656 20.84375 -24.621094 C 20.726562 -26.261719 20.117188 -27.445312 18.515625 -28.324219 C 17.636719 -28.820312 16.527344 -29.203125 15.460938 -29.125 C 13.933594 -29.050781 12.75 -28.058594 11.910156 -26.835938 C 11.261719 -25.84375 10.839844 -24.773438 10.460938 -23.707031 L 9.925781 -22.101562 C 9.773438 -21.683594 9.351562 -20.996094 9.429688 -20.574219 C 9.429688 -20.5 9.695312 -21.070312 9.734375 -21.109375 C 9.503906 -20.382812 9.3125 -19.621094 9.085938 -18.859375 C 9.046875 -18.894531 9.199219 -19.429688 9.160156 -19.429688 C 8.972656 -19.429688 8.320312 -16.988281 8.246094 -16.796875 C 7.863281 -15.421875 7.445312 -14.007812 7.292969 -12.558594 C 7.136719 -11.222656 6.949219 -10 6.605469 -8.703125 C 6.453125 -7.976562 6.222656 -7.292969 6.03125 -6.566406 C 5.917969 -6.070312 5.304688 -4.695312 5.496094 -4.199219 C 5.535156 -4.160156 5.574219 -4.160156 5.613281 -4.199219 C 5.496094 -3.855469 5.457031 -3.550781 5.34375 -3.246094 C 5.34375 -3.246094 5.535156 -4.046875 5.496094 -4.046875 C 5.304688 -3.933594 5.269531 -3.015625 5.269531 -3.054688 C 5.039062 -2.441406 4.3125 -2.441406 3.742188 -2.175781 C 3.246094 -1.984375 2.824219 -1.679688 2.441406 -1.296875 C 1.640625 -0.496094 0.609375 0.917969 0.992188 2.175781 C 1.257812 3.09375 2.289062 3.320312 3.128906 3.207031 C 3.511719 3.128906 4.695312 2.75 4.617188 2.253906 C 4.582031 2.175781 4.007812 2.558594 3.816406 2.632812 C 4.085938 2.441406 4.390625 2.175781 4.617188 1.945312 C 4.582031 2.0625 5.34375 1.222656 5.421875 1.105469 C 5.839844 0.535156 6.335938 0.304688 6.949219 0 C 7.976562 -0.574219 9.046875 -1.105469 10.152344 -1.488281 C 12.519531 -2.328125 15.117188 -2.40625 17.367188 -3.550781 C 17.941406 -3.816406 19.46875 -4.886719 18.132812 -5.039062 Z M 10.078125 -21.644531 C 10.613281 -23.210938 11.300781 -24.660156 12.292969 -25.996094 C 13.09375 -27.101562 14.007812 -27.789062 15.230469 -28.058594 C 12.175781 -27.292969 11.109375 -23.09375 9.925781 -20.5 C 9.542969 -19.582031 9.199219 -18.667969 8.894531 -17.675781 C 9.238281 -19.011719 9.65625 -20.308594 10.078125 -21.644531 Z M 12.101562 -18.667969 L 12.101562 -18.703125 L 12.101562 -18.628906 L 11.222656 -15.996094 C 11.492188 -16.910156 11.796875 -17.789062 12.101562 -18.703125 Z M 3.777344 2.671875 C 3.777344 2.671875 3.777344 2.632812 3.816406 2.632812 Z M 3.777344 2.671875" transform="translate(48.602 38.433)"/></g></g></g><g fill="#004AAD" fill-opacity=".4"><g><g><path d="M 17.558594 -9.503906 C 17.558594 -9.503906 17.597656 -9.46875 17.558594 -9.542969 C 17.367188 -9.8125 17.101562 -9.621094 16.835938 -9.542969 C 15.726562 -9.3125 14.582031 -9.046875 13.4375 -8.855469 C 13.855469 -10.230469 14.277344 -11.679688 14.429688 -13.09375 C 14.507812 -13.628906 14.542969 -14.199219 14.429688 -14.734375 C 14.351562 -15.078125 14.238281 -15.421875 14.046875 -15.726562 C 14.046875 -15.726562 13.589844 -16.300781 13.703125 -15.996094 L 13.667969 -16.03125 L 13.511719 -16.339844 L 13.667969 -16.1875 C 13.703125 -16.414062 13.054688 -16.835938 13.054688 -16.835938 C 12.101562 -17.789062 10.804688 -18.515625 9.503906 -17.789062 C 8.703125 -17.332031 8.054688 -16.566406 7.519531 -15.804688 C 7.328125 -15.535156 7.136719 -15.230469 6.984375 -14.925781 C 6.832031 -14.621094 6.605469 -13.628906 6.375 -13.476562 C 6.183594 -13.324219 5.613281 -13.285156 5.34375 -13.132812 C 4.960938 -12.980469 4.617188 -12.789062 4.3125 -12.558594 C 3.589844 -12.101562 3.015625 -11.453125 2.480469 -10.804688 C 1.566406 -9.582031 1.105469 -8.207031 0.457031 -6.984375 C -0.761719 -4.65625 0.574219 -1.601562 2.824219 -0.496094 C 3.550781 -0.152344 4.390625 0 5.152344 -0.078125 C 5.957031 -0.191406 6.71875 -0.609375 7.328125 -1.070312 C 7.902344 -1.488281 9.160156 -2.253906 9.390625 -2.902344 C 9.390625 -2.9375 9.3125 -2.902344 9.199219 -2.785156 L 10.308594 -4.085938 C 10.34375 -4.046875 10.039062 -3.664062 10.039062 -3.664062 C 10.308594 -3.550781 11.679688 -5.574219 11.832031 -5.726562 C 12.101562 -6.183594 12.367188 -6.679688 12.671875 -7.136719 C 12.941406 -7.480469 12.863281 -7.445312 13.246094 -7.597656 C 13.207031 -7.558594 13.703125 -7.710938 13.78125 -7.710938 C 14.199219 -7.789062 18.667969 -8.09375 17.558594 -9.503906 Z M 4.351562 -1.792969 L 4.3125 -1.792969 C 1.144531 -1.335938 4.808594 -8.054688 4.886719 -8.4375 L 4.65625 -8.09375 C 5.230469 -9.238281 5.765625 -10.152344 6.03125 -10.460938 C 6.453125 -8.550781 8.511719 -7.824219 10.191406 -7.597656 C 9.085938 -5.382812 7.023438 -2.289062 4.351562 -1.792969 Z M 11.871094 -12.367188 C 11.605469 -11.300781 11.375 -9.886719 10.804688 -8.933594 C 10.613281 -8.550781 10.726562 -8.664062 10.34375 -8.589844 C 10.117188 -8.511719 9.621094 -8.589844 9.390625 -8.628906 C 8.972656 -8.664062 8.472656 -8.742188 8.167969 -9.007812 C 7.632812 -9.46875 7.710938 -10.191406 7.789062 -10.839844 C 7.863281 -11.492188 8.054688 -12.101562 8.285156 -12.710938 C 8.398438 -12.941406 9.125 -14.164062 9.007812 -14.390625 C 8.972656 -14.507812 8.550781 -13.820312 8.511719 -13.78125 C 8.742188 -14.199219 8.972656 -14.429688 9.160156 -14.695312 C 9.125 -14.695312 9.160156 -14.734375 9.199219 -14.8125 L 9.199219 -14.773438 L 9.238281 -14.847656 C 9.238281 -14.847656 9.238281 -14.886719 9.277344 -14.886719 C 9.847656 -15.652344 11.261719 -17.367188 12.023438 -16.1875 C 12.597656 -15.191406 12.0625 -13.324219 11.871094 -12.367188 Z M 9.238281 -14.847656 L 9.277344 -14.886719 C 9.277344 -14.847656 9.238281 -14.847656 9.238281 -14.847656 Z M 9.238281 -14.847656" transform="translate(67.645 38.433)"/></g></g></g><g fill="#004AAD" fill-opacity=".4"><g><g><path d="M 17.558594 -9.503906 C 17.558594 -9.503906 17.597656 -9.46875 17.558594 -9.542969 C 17.367188 -9.8125 17.101562 -9.621094 16.835938 -9.542969 C 15.726562 -9.3125 14.582031 -9.046875 13.4375 -8.855469 C 13.855469 -10.230469 14.277344 -11.679688 14.429688 -13.09375 C 14.507812 -13.628906 14.542969 -14.199219 14.429688 -14.734375 C 14.351562 -15.078125 14.238281 -15.421875 14.046875 -15.726562 C 14.046875 -15.726562 13.589844 -16.300781 13.703125 -15.996094 L 13.667969 -16.03125 L 13.511719 -16.339844 L 13.667969 -16.1875 C 13.703125 -16.414062 13.054688 -16.835938 13.054688 -16.835938 C 12.101562 -17.789062 10.804688 -18.515625 9.503906 -17.789062 C 8.703125 -17.332031 8.054688 -16.566406 7.519531 -15.804688 C 7.328125 -15.535156 7.136719 -15.230469 6.984375 -14.925781 C 6.832031 -14.621094 6.605469 -13.628906 6.375 -13.476562 C 6.183594 -13.324219 5.613281 -13.285156 5.34375 -13.132812 C 4.960938 -12.980469 4.617188 -12.789062 4.3125 -12.558594 C 3.589844 -12.101562 3.015625 -11.453125 2.480469 -10.804688 C 1.566406 -9.582031 1.105469 -8.207031 0.457031 -6.984375 C -0.761719 -4.65625 0.574219 -1.601562 2.824219 -0.496094 C 3.550781 -0.152344 4.390625 0 5.152344 -0.078125 C 5.957031 -0.191406 6.71875 -0.609375 7.328125 -1.070312 C 7.902344 -1.488281 9.160156 -2.253906 9.390625 -2.902344 C 9.390625 -2.9375 9.3125 -2.902344 9.199219 -2.785156 L 10.308594 -4.085938 C 10.34375 -4.046875 10.039062 -3.664062 10.039062 -3.664062 C 10.308594 -3.550781 11.679688 -5.574219 11.832031 -5.726562 C 12.101562 -6.183594 12.367188 -6.679688 12.671875 -7.136719 C 12.941406 -7.480469 12.863281 -7.445312 13.246094 -7.597656 C 13.207031 -7.558594 13.703125 -7.710938 13.78125 -7.710938 C 14.199219 -7.789062 18.667969 -8.09375 17.558594 -9.503906 Z M 4.351562 -1.792969 L 4.3125 -1.792969 C 1.144531 -1.335938 4.808594 -8.054688 4.886719 -8.4375 L 4.65625 -8.09375 C 5.230469 -9.238281 5.765625 -10.152344 6.03125 -10.460938 C 6.453125 -8.550781 8.511719 -7.824219 10.191406 -7.597656 C 9.085938 -5.382812 7.023438 -2.289062 4.351562 -1.792969 Z M 11.871094 -12.367188 C 11.605469 -11.300781 11.375 -9.886719 10.804688 -8.933594 C 10.613281 -8.550781 10.726562 -8.664062 10.34375 -8.589844 C 10.117188 -8.511719 9.621094 -8.589844 9.390625 -8.628906 C 8.972656 -8.664062 8.472656 -8.742188 8.167969 -9.007812 C 7.632812 -9.46875 7.710938 -10.191406 7.789062 -10.839844 C 7.863281 -11.492188 8.054688 -12.101562 8.285156 -12.710938 C 8.398438 -12.941406 9.125 -14.164062 9.007812 -14.390625 C 8.972656 -14.507812 8.550781 -13.820312 8.511719 -13.78125 C 8.742188 -14.199219 8.972656 -14.429688 9.160156 -14.695312 C 9.125 -14.695312 9.160156 -14.734375 9.199219 -14.8125 L 9.199219 -14.773438 L 9.238281 -14.847656 C 9.238281 -14.847656 9.238281 -14.886719 9.277344 -14.886719 C 9.847656 -15.652344 11.261719 -17.367188 12.023438 -16.1875 C 12.597656 -15.191406 12.0625 -13.324219 11.871094 -12.367188 Z M 9.238281 -14.847656 L 9.277344 -14.886719 C 9.277344 -14.847656 9.238281 -14.847656 9.238281 -14.847656 Z M 9.238281 -14.847656" transform="translate(82.567 38.433)"/></g></g></g><g fill="#004AAD" fill-opacity=".4"><g><g><path d="M 15.804688 -9.085938 C 15.613281 -10 15.078125 -9.390625 14.847656 -9.046875 C 14.316406 -8.398438 13.476562 -7.789062 12.828125 -7.175781 C 11.949219 -6.414062 11.070312 -5.613281 10.152344 -4.886719 C 9.695312 -4.503906 9.125 -3.96875 8.550781 -3.777344 C 8.472656 -3.742188 8.207031 -3.703125 8.207031 -3.664062 L 8.167969 -3.703125 C 8.167969 -3.703125 8.132812 -4.3125 8.167969 -4.351562 C 8.207031 -4.847656 8.359375 -5.34375 8.511719 -5.800781 C 8.550781 -5.878906 8.972656 -7.175781 8.894531 -7.175781 L 8.703125 -6.949219 C 8.933594 -7.40625 9.238281 -7.863281 9.503906 -8.359375 C 8.894531 -7.789062 8.472656 -7.136719 8.167969 -6.335938 C 8.015625 -5.957031 7.597656 -5.269531 7.519531 -4.695312 C 7.597656 -5.535156 8.167969 -6.640625 8.4375 -7.136719 C 8.816406 -7.941406 9.238281 -8.855469 9.734375 -9.621094 C 10.652344 -10.992188 12.636719 -12.253906 12.023438 -14.164062 C 11.492188 -15.957031 10.078125 -15.996094 8.972656 -14.964844 C 8.4375 -14.46875 3.894531 -8.664062 4.007812 -8.589844 C 4.007812 -8.589844 4.390625 -9.046875 4.886719 -9.695312 L 2.632812 -6.414062 C 2.597656 -6.414062 3.015625 -7.0625 2.976562 -7.101562 C 2.9375 -7.136719 2.671875 -6.871094 2.632812 -6.71875 C 2.710938 -7.519531 2.976562 -8.320312 3.054688 -9.125 C 3.09375 -9.429688 3.054688 -9.65625 3.128906 -9.964844 C 3.28125 -10.460938 3.4375 -10.992188 3.664062 -11.414062 C 3.816406 -11.71875 4.121094 -11.988281 4.199219 -12.292969 C 4.351562 -12.789062 4.3125 -12.980469 4.65625 -13.398438 C 4.960938 -13.78125 5.421875 -14.164062 5.6875 -14.507812 C 6.335938 -15.460938 5.230469 -16.109375 4.617188 -16.222656 C 4.121094 -16.300781 3.625 -16.339844 3.167969 -16.070312 C 2.671875 -15.765625 2.785156 -15.5 2.671875 -15.078125 C 2.558594 -14.542969 2.175781 -13.933594 1.984375 -13.4375 C 1.679688 -12.636719 1.414062 -11.832031 1.144531 -11.03125 C 0.839844 -10.230469 0.535156 -9.46875 0.304688 -8.664062 C 0.113281 -8.015625 0.152344 -7.40625 0.078125 -6.792969 C 0 -6.109375 -0.113281 -5.648438 0.230469 -5.039062 C 0.609375 -4.390625 1.640625 -3.398438 2.328125 -4.238281 L 2.480469 -3.933594 C 3.128906 -5.34375 4.121094 -6.605469 4.925781 -7.976562 C 5.269531 -8.589844 5.878906 -9.007812 6.375 -9.65625 C 7.0625 -10.574219 7.671875 -11.492188 8.4375 -12.367188 C 8.320312 -12.175781 7.824219 -11.300781 7.863281 -11.261719 C 7.941406 -11.300781 7.976562 -11.375 8.054688 -11.453125 L 7.519531 -10.382812 C 7.480469 -10.421875 7.671875 -10.6875 7.597656 -10.6875 C 7.328125 -10.765625 6.527344 -8.628906 6.453125 -8.4375 C 6.183594 -7.597656 6.144531 -6.832031 6.070312 -5.957031 C 6.03125 -5.535156 5.957031 -5.117188 5.957031 -4.695312 C 5.957031 -4.277344 5.992188 -3.855469 6.183594 -3.4375 C 6.296875 -3.207031 6.453125 -2.902344 6.640625 -2.710938 C 6.679688 -2.710938 7.101562 -2.328125 6.910156 -2.632812 L 7.136719 -2.40625 L 7.023438 -2.480469 C 6.984375 -2.289062 8.398438 -1.527344 8.628906 -1.449219 C 9.695312 -1.105469 10.839844 -2.328125 11.527344 -3.054688 C 12.445312 -4.046875 13.207031 -5.191406 14.046875 -6.261719 C 14.507812 -6.871094 15.957031 -8.167969 15.804688 -9.085938 Z M 15.804688 -9.085938" transform="translate(97.488 38.433)"/></g></g></g><g clip-path="url(#a)"><g fill="#004AAD" fill-opacity=".4"><g><g><path d="M 19.46875 -9.160156 C 19.316406 -10.269531 18.207031 -9.160156 17.867188 -8.855469 C 17.214844 -8.359375 16.527344 -7.941406 15.878906 -7.445312 C 15.003906 -6.832031 14.164062 -6.144531 13.324219 -5.457031 C 12.980469 -5.191406 10.878906 -3.246094 10.6875 -3.359375 C 11.300781 -5.269531 12.367188 -7.175781 13.398438 -8.972656 C 14.351562 -10.574219 12.40625 -11.949219 10.839844 -11.261719 C 10.382812 -11.070312 9.886719 -10.230469 9.582031 -9.8125 C 8.855469 -8.78125 8.167969 -7.671875 7.445312 -6.640625 L 6.414062 -5.078125 C 6.296875 -4.925781 5.574219 -3.855469 5.6875 -3.855469 C 5.726562 -3.855469 5.765625 -3.894531 5.800781 -3.933594 C 5.039062 -2.902344 3.933594 -1.601562 2.9375 -0.878906 C 1.566406 0.191406 2.367188 -3.015625 2.558594 -3.550781 C 3.128906 -5.269531 4.085938 -6.910156 5.117188 -8.398438 C 5.269531 -8.628906 7.367188 -11.300781 8.054688 -11.949219 C 7.367188 -11.375 5.304688 -8.816406 4.960938 -8.398438 C 6.183594 -10.152344 8.132812 -12.941406 10.421875 -13.324219 L 9.925781 -13.132812 C 10.382812 -13.207031 11.414062 -13.167969 11.414062 -13.167969 L 11.300781 -13.285156 C 11.492188 -13.167969 11.605469 -13.015625 11.832031 -13.015625 C 12.789062 -13.054688 12.558594 -14.582031 12.140625 -15.039062 C 11.566406 -15.804688 10.191406 -16.109375 9.277344 -15.878906 C 9.007812 -15.804688 8.894531 -15.652344 8.589844 -15.613281 C 8.246094 -15.535156 7.976562 -15.613281 7.558594 -15.382812 C 6.792969 -15.003906 6.144531 -14.46875 5.535156 -13.855469 C 5.152344 -13.511719 1.488281 -9.582031 1.757812 -9.429688 C 1.832031 -9.429688 1.910156 -9.503906 1.945312 -9.542969 L 1.296875 -8.589844 C 1.257812 -8.628906 1.449219 -8.894531 1.414062 -8.894531 C 1.257812 -8.972656 0.496094 -7.710938 0.457031 -7.597656 C 0.078125 -6.984375 -0.230469 -6.296875 -0.34375 -5.574219 C -0.496094 -4.773438 -0.535156 -3.894531 -0.535156 -3.09375 C -0.535156 -2.558594 -0.496094 -2.023438 -0.34375 -1.527344 C -0.304688 -1.449219 0.152344 -0.574219 0.078125 -0.953125 L 0.191406 -0.6875 C 0.152344 -0.6875 0.113281 -0.726562 0.078125 -0.761719 C -0.078125 -0.496094 1.375 0.800781 1.640625 0.917969 C 2.214844 1.183594 2.75 1.03125 3.320312 0.6875 C 4.582031 -0.078125 5.457031 -1.527344 6.335938 -2.75 C 7.292969 -4.046875 8.359375 -5.382812 9.160156 -6.832031 L 8.320312 -3.855469 C 7.976562 -2.75 7.789062 -1.105469 7.101562 -0.230469 C 6.375 0.648438 5.304688 1.414062 4.503906 2.175781 C 3.664062 2.9375 2.824219 3.703125 2.0625 4.582031 C 0.953125 5.839844 -0.078125 7.214844 -1.03125 8.589844 C -2.136719 10.191406 -2.902344 11.910156 -2.136719 13.78125 C -1.449219 15.421875 0.113281 16.949219 2.023438 16.492188 C 3.664062 16.070312 4.277344 14.695312 5 13.398438 C 7.292969 9.429688 8.4375 4.847656 9.734375 0.457031 C 9.925781 -0.191406 10.039062 -0.839844 10.496094 -1.335938 C 10.957031 -1.792969 11.527344 -2.214844 12.0625 -2.632812 C 13.132812 -3.589844 14.238281 -4.464844 15.382812 -5.382812 L 18.476562 -7.75 C 18.972656 -8.132812 19.621094 -8.4375 19.46875 -9.160156 Z M 5.957031 3.816406 C 5.957031 3.777344 5.765625 4.3125 5.800781 4.238281 C 5 6.566406 4.238281 8.894531 3.167969 11.109375 C 2.632812 12.214844 0.113281 16.796875 -0.800781 13.4375 C -1.414062 11.300781 0.648438 8.855469 1.832031 7.292969 C 3.28125 5.421875 4.773438 3.742188 6.488281 2.136719 C 6.335938 2.710938 6.144531 3.28125 5.957031 3.816406 Z M 5.800781 6.488281 C 5.574219 7.328125 5.304688 8.167969 4.960938 8.972656 C 4.617188 9.621094 4.160156 10.191406 3.816406 10.804688 C 4.503906 9.3125 5.230469 7.902344 5.800781 6.375 Z M 3.894531 -7.632812 C 3.664062 -7.214844 3.320312 -6.832031 3.015625 -6.414062 C 3.320312 -7.101562 3.625 -7.710938 4.199219 -8.320312 C 4.3125 -8.4375 4.503906 -8.628906 4.617188 -8.816406 Z M 3.855469 -6.640625 L 3.511719 -6.144531 C 3.742188 -6.566406 4.007812 -6.984375 4.3125 -7.40625 Z M 3.855469 -6.640625" transform="translate(110.501 38.433)"/></g></g></g></g><g fill="#FFBD59"><g><g><path d="M 18.132812 -5.039062 C 17.292969 -5.117188 16.375 -5.152344 15.5 -5.117188 C 12.863281 -4.960938 10.230469 -4.3125 7.710938 -3.550781 C 9.621094 -8.398438 10.574219 -13.550781 12.214844 -18.515625 C 13.015625 -20.917969 13.894531 -23.589844 15.460938 -25.613281 C 15.804688 -26.074219 16.644531 -27.101562 17.367188 -26.914062 C 17.980469 -26.722656 17.675781 -25.15625 17.558594 -24.738281 C 17.710938 -25.269531 18.363281 -27.445312 16.796875 -26.875 C 15.117188 -26.261719 14.125 -23.820312 13.476562 -22.332031 C 14.046875 -23.707031 14.695312 -25.234375 15.765625 -26.300781 C 16.222656 -26.722656 17.332031 -27.5625 17.828125 -26.835938 C 18.285156 -26.148438 17.710938 -24.582031 17.523438 -23.933594 C 17.140625 -22.675781 16.644531 -21.414062 16.070312 -20.230469 C 16.070312 -20.308594 16.566406 -21.53125 16.527344 -21.53125 C 16.375 -21.566406 15.039062 -18.78125 15.039062 -18.742188 L 15.078125 -18.742188 C 15.039062 -18.667969 14.964844 -18.628906 14.964844 -18.628906 C 14.660156 -18.054688 15.269531 -17.789062 15.765625 -17.75 C 16.527344 -17.675781 17.367188 -18.054688 17.980469 -18.515625 C 19.582031 -19.734375 20.957031 -22.597656 20.84375 -24.621094 C 20.726562 -26.261719 20.117188 -27.445312 18.515625 -28.324219 C 17.636719 -28.820312 16.527344 -29.203125 15.460938 -29.125 C 13.933594 -29.050781 12.75 -28.058594 11.910156 -26.835938 C 11.261719 -25.84375 10.839844 -24.773438 10.460938 -23.707031 L 9.925781 -22.101562 C 9.773438 -21.683594 9.351562 -20.996094 9.429688 -20.574219 C 9.429688 -20.5 9.695312 -21.070312 9.734375 -21.109375 C 9.503906 -20.382812 9.3125 -19.621094 9.085938 -18.859375 C 9.046875 -18.894531 9.199219 -19.429688 9.160156 -19.429688 C 8.972656 -19.429688 8.320312 -16.988281 8.246094 -16.796875 C 7.863281 -15.421875 7.445312 -14.007812 7.292969 -12.558594 C 7.136719 -11.222656 6.949219 -10 6.605469 -8.703125 C 6.453125 -7.976562 6.222656 -7.292969 6.03125 -6.566406 C 5.917969 -6.070312 5.304688 -4.695312 5.496094 -4.199219 C 5.535156 -4.160156 5.574219 -4.160156 5.613281 -4.199219 C 5.496094 -3.855469 5.457031 -3.550781 5.34375 -3.246094 C 5.34375 -3.246094 5.535156 -4.046875 5.496094 -4.046875 C 5.304688 -3.933594 5.269531 -3.015625 5.269531 -3.054688 C 5.039062 -2.441406 4.3125 -2.441406 3.742188 -2.175781 C 3.246094 -1.984375 2.824219 -1.679688 2.441406 -1.296875 C 1.640625 -0.496094 0.609375 0.917969 0.992188 2.175781 C 1.257812 3.09375 2.289062 3.320312 3.128906 3.207031 C 3.511719 3.128906 4.695312 2.75 4.617188 2.253906 C 4.582031 2.175781 4.007812 2.558594 3.816406 2.632812 C 4.085938 2.441406 4.390625 2.175781 4.617188 1.945312 C 4.582031 2.0625 5.34375 1.222656 5.421875 1.105469 C 5.839844 0.535156 6.335938 0.304688 6.949219 0 C 7.976562 -0.574219 9.046875 -1.105469 10.152344 -1.488281 C 12.519531 -2.328125 15.117188 -2.40625 17.367188 -3.550781 C 17.941406 -3.816406 19.46875 -4.886719 18.132812 -5.039062 Z M 10.078125 -21.644531 C 10.613281 -23.210938 11.300781 -24.660156 12.292969 -25.996094 C 13.09375 -27.101562 14.007812 -27.789062 15.230469 -28.058594 C 12.175781 -27.292969 11.109375 -23.09375 9.925781 -20.5 C 9.542969 -19.582031 9.199219 -18.667969 8.894531 -17.675781 C 9.238281 -19.011719 9.65625 -20.308594 10.078125 -21.644531 Z M 12.101562 -18.667969 L 12.101562 -18.703125 L 12.101562 -18.628906 L 11.222656 -15.996094 C 11.492188 -16.910156 11.796875 -17.789062 12.101562 -18.703125 Z M 3.777344 2.671875 C 3.777344 2.671875 3.777344 2.632812 3.816406 2.632812 Z M 3.777344 2.671875" transform="translate(46.915 36.745)"/></g></g></g><g fill="#FFBD59"><g><g><path d="M 17.558594 -9.503906 C 17.558594 -9.503906 17.597656 -9.46875 17.558594 -9.542969 C 17.367188 -9.8125 17.101562 -9.621094 16.835938 -9.542969 C 15.726562 -9.3125 14.582031 -9.046875 13.4375 -8.855469 C 13.855469 -10.230469 14.277344 -11.679688 14.429688 -13.09375 C 14.507812 -13.628906 14.542969 -14.199219 14.429688 -14.734375 C 14.351562 -15.078125 14.238281 -15.421875 14.046875 -15.726562 C 14.046875 -15.726562 13.589844 -16.300781 13.703125 -15.996094 L 13.667969 -16.03125 L 13.511719 -16.339844 L 13.667969 -16.1875 C 13.703125 -16.414062 13.054688 -16.835938 13.054688 -16.835938 C 12.101562 -17.789062 10.804688 -18.515625 9.503906 -17.789062 C 8.703125 -17.332031 8.054688 -16.566406 7.519531 -15.804688 C 7.328125 -15.535156 7.136719 -15.230469 6.984375 -14.925781 C 6.832031 -14.621094 6.605469 -13.628906 6.375 -13.476562 C 6.183594 -13.324219 5.613281 -13.285156 5.34375 -13.132812 C 4.960938 -12.980469 4.617188 -12.789062 4.3125 -12.558594 C 3.589844 -12.101562 3.015625 -11.453125 2.480469 -10.804688 C 1.566406 -9.582031 1.105469 -8.207031 0.457031 -6.984375 C -0.761719 -4.65625 0.574219 -1.601562 2.824219 -0.496094 C 3.550781 -0.152344 4.390625 0 5.152344 -0.078125 C 5.957031 -0.191406 6.71875 -0.609375 7.328125 -1.070312 C 7.902344 -1.488281 9.160156 -2.253906 9.390625 -2.902344 C 9.390625 -2.9375 9.3125 -2.902344 9.199219 -2.785156 L 10.308594 -4.085938 C 10.34375 -4.046875 10.039062 -3.664062 10.039062 -3.664062 C 10.308594 -3.550781 11.679688 -5.574219 11.832031 -5.726562 C 12.101562 -6.183594 12.367188 -6.679688 12.671875 -7.136719 C 12.941406 -7.480469 12.863281 -7.445312 13.246094 -7.597656 C 13.207031 -7.558594 13.703125 -7.710938 13.78125 -7.710938 C 14.199219 -7.789062 18.667969 -8.09375 17.558594 -9.503906 Z M 4.351562 -1.792969 L 4.3125 -1.792969 C 1.144531 -1.335938 4.808594 -8.054688 4.886719 -8.4375 L 4.65625 -8.09375 C 5.230469 -9.238281 5.765625 -10.152344 6.03125 -10.460938 C 6.453125 -8.550781 8.511719 -7.824219 10.191406 -7.597656 C 9.085938 -5.382812 7.023438 -2.289062 4.351562 -1.792969 Z M 11.871094 -12.367188 C 11.605469 -11.300781 11.375 -9.886719 10.804688 -8.933594 C 10.613281 -8.550781 10.726562 -8.664062 10.34375 -8.589844 C 10.117188 -8.511719 9.621094 -8.589844 9.390625 -8.628906 C 8.972656 -8.664062 8.472656 -8.742188 8.167969 -9.007812 C 7.632812 -9.46875 7.710938 -10.191406 7.789062 -10.839844 C 7.863281 -11.492188 8.054688 -12.101562 8.285156 -12.710938 C 8.398438 -12.941406 9.125 -14.164062 9.007812 -14.390625 C 8.972656 -14.507812 8.550781 -13.820312 8.511719 -13.78125 C 8.742188 -14.199219 8.972656 -14.429688 9.160156 -14.695312 C 9.125 -14.695312 9.160156 -14.734375 9.199219 -14.8125 L 9.199219 -14.773438 L 9.238281 -14.847656 C 9.238281 -14.847656 9.238281 -14.886719 9.277344 -14.886719 C 9.847656 -15.652344 11.261719 -17.367188 12.023438 -16.1875 C 12.597656 -15.191406 12.0625 -13.324219 11.871094 -12.367188 Z M 9.238281 -14.847656 L 9.277344 -14.886719 C 9.277344 -14.847656 9.238281 -14.847656 9.238281 -14.847656 Z M 9.238281 -14.847656" transform="translate(65.958 36.745)"/></g></g></g><g fill="#FFBD59"><g><g><path d="M 17.558594 -9.503906 C 17.558594 -9.503906 17.597656 -9.46875 17.558594 -9.542969 C 17.367188 -9.8125 17.101562 -9.621094 16.835938 -9.542969 C 15.726562 -9.3125 14.582031 -9.046875 13.4375 -8.855469 C 13.855469 -10.230469 14.277344 -11.679688 14.429688 -13.09375 C 14.507812 -13.628906 14.542969 -14.199219 14.429688 -14.734375 C 14.351562 -15.078125 14.238281 -15.421875 14.046875 -15.726562 C 14.046875 -15.726562 13.589844 -16.300781 13.703125 -15.996094 L 13.667969 -16.03125 L 13.511719 -16.339844 L 13.667969 -16.1875 C 13.703125 -16.414062 13.054688 -16.835938 13.054688 -16.835938 C 12.101562 -17.789062 10.804688 -18.515625 9.503906 -17.789062 C 8.703125 -17.332031 8.054688 -16.566406 7.519531 -15.804688 C 7.328125 -15.535156 7.136719 -15.230469 6.984375 -14.925781 C 6.832031 -14.621094 6.605469 -13.628906 6.375 -13.476562 C 6.183594 -13.324219 5.613281 -13.285156 5.34375 -13.132812 C 4.960938 -12.980469 4.617188 -12.789062 4.3125 -12.558594 C 3.589844 -12.101562 3.015625 -11.453125 2.480469 -10.804688 C 1.566406 -9.582031 1.105469 -8.207031 0.457031 -6.984375 C -0.761719 -4.65625 0.574219 -1.601562 2.824219 -0.496094 C 3.550781 -0.152344 4.390625 0 5.152344 -0.078125 C 5.957031 -0.191406 6.71875 -0.609375 7.328125 -1.070312 C 7.902344 -1.488281 9.160156 -2.253906 9.390625 -2.902344 C 9.390625 -2.9375 9.3125 -2.902344 9.199219 -2.785156 L 10.308594 -4.085938 C 10.34375 -4.046875 10.039062 -3.664062 10.039062 -3.664062 C 10.308594 -3.550781 11.679688 -5.574219 11.832031 -5.726562 C 12.101562 -6.183594 12.367188 -6.679688 12.671875 -7.136719 C 12.941406 -7.480469 12.863281 -7.445312 13.246094 -7.597656 C 13.207031 -7.558594 13.703125 -7.710938 13.78125 -7.710938 C 14.199219 -7.789062 18.667969 -8.09375 17.558594 -9.503906 Z M 4.351562 -1.792969 L 4.3125 -1.792969 C 1.144531 -1.335938 4.808594 -8.054688 4.886719 -8.4375 L 4.65625 -8.09375 C 5.230469 -9.238281 5.765625 -10.152344 6.03125 -10.460938 C 6.453125 -8.550781 8.511719 -7.824219 10.191406 -7.597656 C 9.085938 -5.382812 7.023438 -2.289062 4.351562 -1.792969 Z M 11.871094 -12.367188 C 11.605469 -11.300781 11.375 -9.886719 10.804688 -8.933594 C 10.613281 -8.550781 10.726562 -8.664062 10.34375 -8.589844 C 10.117188 -8.511719 9.621094 -8.589844 9.390625 -8.628906 C 8.972656 -8.664062 8.472656 -8.742188 8.167969 -9.007812 C 7.632812 -9.46875 7.710938 -10.191406 7.789062 -10.839844 C 7.863281 -11.492188 8.054688 -12.101562 8.285156 -12.710938 C 8.398438 -12.941406 9.125 -14.164062 9.007812 -14.390625 C 8.972656 -14.507812 8.550781 -13.820312 8.511719 -13.78125 C 8.742188 -14.199219 8.972656 -14.429688 9.160156 -14.695312 C 9.125 -14.695312 9.160156 -14.734375 9.199219 -14.8125 L 9.199219 -14.773438 L 9.238281 -14.847656 C 9.238281 -14.847656 9.238281 -14.886719 9.277344 -14.886719 C 9.847656 -15.652344 11.261719 -17.367188 12.023438 -16.1875 C 12.597656 -15.191406 12.0625 -13.324219 11.871094 -12.367188 Z M 9.238281 -14.847656 L 9.277344 -14.886719 C 9.277344 -14.847656 9.238281 -14.847656 9.238281 -14.847656 Z M 9.238281 -14.847656" transform="translate(80.88 36.745)"/></g></g></g><g fill="#FFBD59"><g><g><path d="M 15.804688 -9.085938 C 15.613281 -10 15.078125 -9.390625 14.847656 -9.046875 C 14.316406 -8.398438 13.476562 -7.789062 12.828125 -7.175781 C 11.949219 -6.414062 11.070312 -5.613281 10.152344 -4.886719 C 9.695312 -4.503906 9.125 -3.96875 8.550781 -3.777344 C 8.472656 -3.742188 8.207031 -3.703125 8.207031 -3.664062 L 8.167969 -3.703125 C 8.167969 -3.703125 8.132812 -4.3125 8.167969 -4.351562 C 8.207031 -4.847656 8.359375 -5.34375 8.511719 -5.800781 C 8.550781 -5.878906 8.972656 -7.175781 8.894531 -7.175781 L 8.703125 -6.949219 C 8.933594 -7.40625 9.238281 -7.863281 9.503906 -8.359375 C 8.894531 -7.789062 8.472656 -7.136719 8.167969 -6.335938 C 8.015625 -5.957031 7.597656 -5.269531 7.519531 -4.695312 C 7.597656 -5.535156 8.167969 -6.640625 8.4375 -7.136719 C 8.816406 -7.941406 9.238281 -8.855469 9.734375 -9.621094 C 10.652344 -10.992188 12.636719 -12.253906 12.023438 -14.164062 C 11.492188 -15.957031 10.078125 -15.996094 8.972656 -14.964844 C 8.4375 -14.46875 3.894531 -8.664062 4.007812 -8.589844 C 4.007812 -8.589844 4.390625 -9.046875 4.886719 -9.695312 L 2.632812 -6.414062 C 2.597656 -6.414062 3.015625 -7.0625 2.976562 -7.101562 C 2.9375 -7.136719 2.671875 -6.871094 2.632812 -6.71875 C 2.710938 -7.519531 2.976562 -8.320312 3.054688 -9.125 C 3.09375 -9.429688 3.054688 -9.65625 3.128906 -9.964844 C 3.28125 -10.460938 3.4375 -10.992188 3.664062 -11.414062 C 3.816406 -11.71875 4.121094 -11.988281 4.199219 -12.292969 C 4.351562 -12.789062 4.3125 -12.980469 4.65625 -13.398438 C 4.960938 -13.78125 5.421875 -14.164062 5.6875 -14.507812 C 6.335938 -15.460938 5.230469 -16.109375 4.617188 -16.222656 C 4.121094 -16.300781 3.625 -16.339844 3.167969 -16.070312 C 2.671875 -15.765625 2.785156 -15.5 2.671875 -15.078125 C 2.558594 -14.542969 2.175781 -13.933594 1.984375 -13.4375 C 1.679688 -12.636719 1.414062 -11.832031 1.144531 -11.03125 C 0.839844 -10.230469 0.535156 -9.46875 0.304688 -8.664062 C 0.113281 -8.015625 0.152344 -7.40625 0.078125 -6.792969 C 0 -6.109375 -0.113281 -5.648438 0.230469 -5.039062 C 0.609375 -4.390625 1.640625 -3.398438 2.328125 -4.238281 L 2.480469 -3.933594 C 3.128906 -5.34375 4.121094 -6.605469 4.925781 -7.976562 C 5.269531 -8.589844 5.878906 -9.007812 6.375 -9.65625 C 7.0625 -10.574219 7.671875 -11.492188 8.4375 -12.367188 C 8.320312 -12.175781 7.824219 -11.300781 7.863281 -11.261719 C 7.941406 -11.300781 7.976562 -11.375 8.054688 -11.453125 L 7.519531 -10.382812 C 7.480469 -10.421875 7.671875 -10.6875 7.597656 -10.6875 C 7.328125 -10.765625 6.527344 -8.628906 6.453125 -8.4375 C 6.183594 -7.597656 6.144531 -6.832031 6.070312 -5.957031 C 6.03125 -5.535156 5.957031 -5.117188 5.957031 -4.695312 C 5.957031 -4.277344 5.992188 -3.855469 6.183594 -3.4375 C 6.296875 -3.207031 6.453125 -2.902344 6.640625 -2.710938 C 6.679688 -2.710938 7.101562 -2.328125 6.910156 -2.632812 L 7.136719 -2.40625 L 7.023438 -2.480469 C 6.984375 -2.289062 8.398438 -1.527344 8.628906 -1.449219 C 9.695312 -1.105469 10.839844 -2.328125 11.527344 -3.054688 C 12.445312 -4.046875 13.207031 -5.191406 14.046875 -6.261719 C 14.507812 -6.871094 15.957031 -8.167969 15.804688 -9.085938 Z M 15.804688 -9.085938" transform="translate(95.8 36.745)"/></g></g></g><g clip-path="url(#b)"><g fill="#FFBD59"><g><g><path d="M 19.46875 -9.160156 C 19.316406 -10.269531 18.207031 -9.160156 17.867188 -8.855469 C 17.214844 -8.359375 16.527344 -7.941406 15.878906 -7.445312 C 15.003906 -6.832031 14.164062 -6.144531 13.324219 -5.457031 C 12.980469 -5.191406 10.878906 -3.246094 10.6875 -3.359375 C 11.300781 -5.269531 12.367188 -7.175781 13.398438 -8.972656 C 14.351562 -10.574219 12.40625 -11.949219 10.839844 -11.261719 C 10.382812 -11.070312 9.886719 -10.230469 9.582031 -9.8125 C 8.855469 -8.78125 8.167969 -7.671875 7.445312 -6.640625 L 6.414062 -5.078125 C 6.296875 -4.925781 5.574219 -3.855469 5.6875 -3.855469 C 5.726562 -3.855469 5.765625 -3.894531 5.800781 -3.933594 C 5.039062 -2.902344 3.933594 -1.601562 2.9375 -0.878906 C 1.566406 0.191406 2.367188 -3.015625 2.558594 -3.550781 C 3.128906 -5.269531 4.085938 -6.910156 5.117188 -8.398438 C 5.269531 -8.628906 7.367188 -11.300781 8.054688 -11.949219 C 7.367188 -11.375 5.304688 -8.816406 4.960938 -8.398438 C 6.183594 -10.152344 8.132812 -12.941406 10.421875 -13.324219 L 9.925781 -13.132812 C 10.382812 -13.207031 11.414062 -13.167969 11.414062 -13.167969 L 11.300781 -13.285156 C 11.492188 -13.167969 11.605469 -13.015625 11.832031 -13.015625 C 12.789062 -13.054688 12.558594 -14.582031 12.140625 -15.039062 C 11.566406 -15.804688 10.191406 -16.109375 9.277344 -15.878906 C 9.007812 -15.804688 8.894531 -15.652344 8.589844 -15.613281 C 8.246094 -15.535156 7.976562 -15.613281 7.558594 -15.382812 C 6.792969 -15.003906 6.144531 -14.46875 5.535156 -13.855469 C 5.152344 -13.511719 1.488281 -9.582031 1.757812 -9.429688 C 1.832031 -9.429688 1.910156 -9.503906 1.945312 -9.542969 L 1.296875 -8.589844 C 1.257812 -8.628906 1.449219 -8.894531 1.414062 -8.894531 C 1.257812 -8.972656 0.496094 -7.710938 0.457031 -7.597656 C 0.078125 -6.984375 -0.230469 -6.296875 -0.34375 -5.574219 C -0.496094 -4.773438 -0.535156 -3.894531 -0.535156 -3.09375 C -0.535156 -2.558594 -0.496094 -2.023438 -0.34375 -1.527344 C -0.304688 -1.449219 0.152344 -0.574219 0.078125 -0.953125 L 0.191406 -0.6875 C 0.152344 -0.6875 0.113281 -0.726562 0.078125 -0.761719 C -0.078125 -0.496094 1.375 0.800781 1.640625 0.917969 C 2.214844 1.183594 2.75 1.03125 3.320312 0.6875 C 4.582031 -0.078125 5.457031 -1.527344 6.335938 -2.75 C 7.292969 -4.046875 8.359375 -5.382812 9.160156 -6.832031 L 8.320312 -3.855469 C 7.976562 -2.75 7.789062 -1.105469 7.101562 -0.230469 C 6.375 0.648438 5.304688 1.414062 4.503906 2.175781 C 3.664062 2.9375 2.824219 3.703125 2.0625 4.582031 C 0.953125 5.839844 -0.078125 7.214844 -1.03125 8.589844 C -2.136719 10.191406 -2.902344 11.910156 -2.136719 13.78125 C -1.449219 15.421875 0.113281 16.949219 2.023438 16.492188 C 3.664062 16.070312 4.277344 14.695312 5 13.398438 C 7.292969 9.429688 8.4375 4.847656 9.734375 0.457031 C 9.925781 -0.191406 10.039062 -0.839844 10.496094 -1.335938 C 10.957031 -1.792969 11.527344 -2.214844 12.0625 -2.632812 C 13.132812 -3.589844 14.238281 -4.464844 15.382812 -5.382812 L 18.476562 -7.75 C 18.972656 -8.132812 19.621094 -8.4375 19.46875 -9.160156 Z M 5.957031 3.816406 C 5.957031 3.777344 5.765625 4.3125 5.800781 4.238281 C 5 6.566406 4.238281 8.894531 3.167969 11.109375 C 2.632812 12.214844 0.113281 16.796875 -0.800781 13.4375 C -1.414062 11.300781 0.648438 8.855469 1.832031 7.292969 C 3.28125 5.421875 4.773438 3.742188 6.488281 2.136719 C 6.335938 2.710938 6.144531 3.28125 5.957031 3.816406 Z M 5.800781 6.488281 C 5.574219 7.328125 5.304688 8.167969 4.960938 8.972656 C 4.617188 9.621094 4.160156 10.191406 3.816406 10.804688 C 4.503906 9.3125 5.230469 7.902344 5.800781 6.375 Z M 3.894531 -7.632812 C 3.664062 -7.214844 3.320312 -6.832031 3.015625 -6.414062 C 3.320312 -7.101562 3.625 -7.710938 4.199219 -8.320312 C 4.3125 -8.4375 4.503906 -8.628906 4.617188 -8.816406 Z M 3.855469 -6.640625 L 3.511719 -6.144531 C 3.742188 -6.566406 4.007812 -6.984375 4.3125 -7.40625 Z M 3.855469 -6.640625" transform="translate(108.814 36.745)"/></g></g></g></g><g fill="#004AAD"><g><g><path d="M 3.21875 -5.328125 C 3.238281 -5.328125 3.25 -5.300781 3.25 -5.25 L 3.359375 -4.4375 C 3.367188 -4.382812 3.375 -4.347656 3.375 -4.328125 C 3.375 -4.316406 3.351562 -4.3125 3.3125 -4.3125 C 3.269531 -4.3125 3.242188 -4.316406 3.234375 -4.328125 C 3.222656 -4.335938 3.210938 -4.351562 3.203125 -4.375 C 3.191406 -4.40625 3.179688 -4.4375 3.171875 -4.46875 C 3.160156 -4.5 3.144531 -4.53125 3.125 -4.5625 C 3.070312 -4.675781 2.988281 -4.789062 2.875 -4.90625 C 2.59375 -5.175781 2.28125 -5.3125 1.9375 -5.3125 C 1.71875 -5.3125 1.515625 -5.238281 1.328125 -5.09375 C 1.140625 -4.957031 1.046875 -4.796875 1.046875 -4.609375 C 1.046875 -4.429688 1.082031 -4.269531 1.15625 -4.125 C 1.226562 -3.988281 1.320312 -3.863281 1.4375 -3.75 C 1.550781 -3.632812 1.679688 -3.519531 1.828125 -3.40625 C 1.972656 -3.300781 2.125 -3.195312 2.28125 -3.09375 C 2.675781 -2.8125 2.960938 -2.566406 3.140625 -2.359375 C 3.398438 -2.054688 3.546875 -1.707031 3.578125 -1.3125 C 3.578125 -0.882812 3.410156 -0.539062 3.078125 -0.28125 C 2.742188 -0.0195312 2.359375 0.109375 1.921875 0.109375 C 1.628906 0.109375 1.398438 0.078125 1.234375 0.015625 C 1.066406 -0.0351562 0.953125 -0.0703125 0.890625 -0.09375 C 0.828125 -0.125 0.78125 -0.140625 0.75 -0.140625 C 0.726562 -0.140625 0.710938 -0.140625 0.703125 -0.140625 L 0.515625 -0.109375 C 0.484375 -0.109375 0.460938 -0.132812 0.453125 -0.1875 C 0.378906 -0.8125 0.34375 -1.144531 0.34375 -1.1875 C 0.34375 -1.226562 0.34375 -1.253906 0.34375 -1.265625 C 0.351562 -1.285156 0.375 -1.296875 0.40625 -1.296875 C 0.476562 -1.296875 0.539062 -1.191406 0.59375 -0.984375 C 0.863281 -0.410156 1.3125 -0.125 1.9375 -0.125 C 2.21875 -0.125 2.457031 -0.207031 2.65625 -0.375 C 2.863281 -0.550781 2.96875 -0.78125 2.96875 -1.0625 C 2.96875 -1.5 2.703125 -1.910156 2.171875 -2.296875 C 2.023438 -2.398438 1.804688 -2.546875 1.515625 -2.734375 C 1.234375 -2.929688 1.007812 -3.125 0.84375 -3.3125 C 0.582031 -3.601562 0.453125 -3.929688 0.453125 -4.296875 C 0.453125 -4.660156 0.59375 -4.957031 0.875 -5.1875 C 1.164062 -5.414062 1.5 -5.53125 1.875 -5.53125 C 2.070312 -5.53125 2.285156 -5.5 2.515625 -5.4375 C 2.753906 -5.375 2.914062 -5.332031 3 -5.3125 Z M 3.21875 -5.328125" transform="translate(16.564 56.41)"/></g></g></g><g fill="#004AAD"><g><g><path d="M 0.375 0 C 0.351562 0 0.34375 -0.0234375 0.34375 -0.078125 L 0.34375 -0.125 C 0.34375 -0.144531 0.351562 -0.15625 0.375 -0.15625 C 0.40625 -0.15625 0.445312 -0.160156 0.5 -0.171875 C 0.550781 -0.191406 0.585938 -0.203125 0.609375 -0.203125 C 0.867188 -0.265625 1 -0.414062 1 -0.65625 L 1 -4.671875 C 1 -4.910156 0.957031 -5.0625 0.875 -5.125 C 0.789062 -5.1875 0.632812 -5.21875 0.40625 -5.21875 L 0.234375 -5.21875 C 0.179688 -5.21875 0.15625 -5.25 0.15625 -5.3125 C 0.15625 -5.351562 0.171875 -5.375 0.203125 -5.375 L 0.234375 -5.375 L 2.375 -5.4375 L 2.75 -5.4375 C 3.207031 -5.40625 3.585938 -5.238281 3.890625 -4.9375 C 4.191406 -4.644531 4.34375 -4.289062 4.34375 -3.875 C 4.34375 -3.457031 4.195312 -3.082031 3.90625 -2.75 C 3.769531 -2.59375 3.617188 -2.46875 3.453125 -2.375 C 3.296875 -2.28125 3.140625 -2.234375 2.984375 -2.234375 L 1.828125 -2.28125 L 1.796875 -2.28125 C 1.765625 -2.28125 1.75 -2.265625 1.75 -2.234375 L 1.75 -0.65625 C 1.75 -0.519531 1.785156 -0.414062 1.859375 -0.34375 C 1.929688 -0.28125 2.09375 -0.226562 2.34375 -0.1875 C 2.375 -0.1875 2.425781 -0.179688 2.5 -0.171875 C 2.570312 -0.160156 2.617188 -0.15625 2.640625 -0.15625 C 2.671875 -0.15625 2.6875 -0.144531 2.6875 -0.125 L 2.6875 -0.03125 C 2.6875 -0.0078125 2.675781 0 2.65625 0 Z M 2.0625 -5.234375 C 2.03125 -5.234375 1.992188 -5.234375 1.953125 -5.234375 C 1.921875 -5.234375 1.878906 -5.234375 1.828125 -5.234375 C 1.773438 -5.234375 1.75 -5.210938 1.75 -5.171875 L 1.75 -2.59375 C 1.757812 -2.539062 1.785156 -2.515625 1.828125 -2.515625 L 2.21875 -2.484375 C 2.625 -2.484375 2.953125 -2.617188 3.203125 -2.890625 C 3.453125 -3.171875 3.578125 -3.519531 3.578125 -3.9375 C 3.578125 -4.351562 3.457031 -4.675781 3.21875 -4.90625 C 2.976562 -5.132812 2.65625 -5.25 2.25 -5.25 C 2.207031 -5.25 2.171875 -5.25 2.140625 -5.25 C 2.117188 -5.25 2.09375 -5.242188 2.0625 -5.234375 Z M 2.0625 -5.234375" transform="translate(21.609 56.41)"/></g></g></g><g fill="#004AAD"><g><g><path d="M 4.890625 -0.328125 C 4.671875 -0.191406 4.425781 -0.0820312 4.15625 0 C 3.894531 0.0703125 3.664062 0.109375 3.46875 0.109375 C 3.050781 0.109375 2.65625 0.0390625 2.28125 -0.09375 C 1.757812 -0.28125 1.335938 -0.5625 1.015625 -0.9375 C 0.617188 -1.40625 0.421875 -2 0.421875 -2.71875 C 0.421875 -3.238281 0.550781 -3.710938 0.8125 -4.140625 C 1.082031 -4.578125 1.453125 -4.914062 1.921875 -5.15625 C 2.398438 -5.40625 2.910156 -5.53125 3.453125 -5.53125 C 3.992188 -5.53125 4.476562 -5.410156 4.90625 -5.171875 C 5.332031 -4.929688 5.675781 -4.597656 5.9375 -4.171875 C 6.195312 -3.753906 6.328125 -3.300781 6.328125 -2.8125 C 6.328125 -2.320312 6.195312 -1.851562 5.9375 -1.40625 C 5.6875 -0.957031 5.335938 -0.597656 4.890625 -0.328125 Z M 1.21875 -2.84375 C 1.21875 -2.425781 1.3125 -2.007812 1.5 -1.59375 C 1.6875 -1.175781 1.953125 -0.832031 2.296875 -0.5625 C 2.648438 -0.300781 3.054688 -0.171875 3.515625 -0.171875 C 4.160156 -0.171875 4.664062 -0.421875 5.03125 -0.921875 C 5.363281 -1.378906 5.53125 -1.957031 5.53125 -2.65625 C 5.53125 -3.351562 5.328125 -3.953125 4.921875 -4.453125 C 4.722656 -4.703125 4.484375 -4.898438 4.203125 -5.046875 C 3.921875 -5.203125 3.632812 -5.28125 3.34375 -5.28125 C 3.0625 -5.28125 2.828125 -5.242188 2.640625 -5.171875 C 2.453125 -5.109375 2.28125 -5.019531 2.125 -4.90625 C 1.976562 -4.800781 1.847656 -4.671875 1.734375 -4.515625 C 1.617188 -4.367188 1.523438 -4.207031 1.453125 -4.03125 C 1.296875 -3.664062 1.21875 -3.269531 1.21875 -2.84375 Z M 1.21875 -2.84375" transform="translate(27.36 56.41)"/></g></g></g><g fill="#004AAD"><g><g><path d="M 0.203125 0 C 0.179688 0 0.171875 -0.0234375 0.171875 -0.078125 L 0.171875 -0.125 C 0.171875 -0.144531 0.179688 -0.15625 0.203125 -0.15625 C 0.210938 -0.15625 0.234375 -0.15625 0.265625 -0.15625 C 0.304688 -0.164062 0.34375 -0.171875 0.375 -0.171875 C 0.40625 -0.179688 0.4375 -0.1875 0.46875 -0.1875 C 0.5 -0.195312 0.519531 -0.203125 0.53125 -0.203125 C 0.789062 -0.265625 0.921875 -0.414062 0.921875 -0.65625 L 0.921875 -4.671875 C 0.921875 -4.890625 0.832031 -5.046875 0.65625 -5.140625 C 0.550781 -5.191406 0.441406 -5.21875 0.328125 -5.21875 L 0.1875 -5.21875 C 0.164062 -5.21875 0.15625 -5.226562 0.15625 -5.25 L 0.15625 -5.34375 C 0.15625 -5.363281 0.171875 -5.375 0.203125 -5.375 L 2.296875 -5.4375 L 2.671875 -5.4375 C 3.128906 -5.40625 3.507812 -5.238281 3.8125 -4.9375 C 4.113281 -4.644531 4.265625 -4.28125 4.265625 -3.84375 C 4.265625 -3.414062 4.082031 -3.082031 3.71875 -2.84375 C 3.613281 -2.769531 3.492188 -2.703125 3.359375 -2.640625 L 4.515625 -0.75 C 4.710938 -0.414062 4.984375 -0.179688 5.328125 -0.046875 C 5.359375 -0.046875 5.375 -0.03125 5.375 0 C 5.375 0.0625 5.328125 0.09375 5.234375 0.09375 C 4.671875 0.09375 4.21875 -0.125 3.875 -0.5625 C 3.800781 -0.65625 3.726562 -0.757812 3.65625 -0.875 L 2.671875 -2.4375 L 1.765625 -2.46875 L 1.734375 -2.46875 C 1.691406 -2.46875 1.671875 -2.453125 1.671875 -2.421875 L 1.671875 -0.65625 C 1.671875 -0.519531 1.707031 -0.414062 1.78125 -0.34375 C 1.863281 -0.28125 2.003906 -0.234375 2.203125 -0.203125 C 2.253906 -0.191406 2.316406 -0.179688 2.390625 -0.171875 C 2.460938 -0.160156 2.507812 -0.15625 2.53125 -0.15625 C 2.5625 -0.15625 2.578125 -0.144531 2.578125 -0.125 L 2.578125 -0.03125 C 2.578125 -0.0078125 2.566406 0 2.546875 0 Z M 1.984375 -5.234375 C 1.953125 -5.234375 1.914062 -5.234375 1.875 -5.234375 C 1.84375 -5.234375 1.800781 -5.226562 1.75 -5.21875 C 1.695312 -5.21875 1.671875 -5.203125 1.671875 -5.171875 L 1.671875 -2.734375 C 1.679688 -2.679688 1.707031 -2.65625 1.75 -2.65625 L 2.140625 -2.625 C 2.859375 -2.625 3.289062 -2.878906 3.4375 -3.390625 C 3.476562 -3.554688 3.5 -3.738281 3.5 -3.9375 C 3.5 -4.34375 3.375 -4.660156 3.125 -4.890625 C 2.875 -5.117188 2.554688 -5.234375 2.171875 -5.234375 C 2.128906 -5.234375 2.09375 -5.234375 2.0625 -5.234375 C 2.039062 -5.234375 2.015625 -5.234375 1.984375 -5.234375 Z M 1.984375 -5.234375" transform="translate(35.241 56.41)"/></g></g></g><g fill="#004AAD"><g><g><path d="M 1.515625 -0.125 C 1.515625 -0.144531 1.53125 -0.15625 1.5625 -0.15625 L 1.65625 -0.15625 C 1.90625 -0.15625 2.101562 -0.207031 2.25 -0.3125 C 2.40625 -0.414062 2.484375 -0.539062 2.484375 -0.6875 L 2.484375 -4.90625 C 2.484375 -4.957031 2.472656 -4.988281 2.453125 -5 C 2.429688 -5.007812 2.40625 -5.015625 2.375 -5.015625 L 0.921875 -5.015625 C 0.679688 -4.960938 0.523438 -4.78125 0.453125 -4.46875 C 0.410156 -4.300781 0.382812 -4.191406 0.375 -4.140625 C 0.363281 -4.097656 0.347656 -4.078125 0.328125 -4.078125 L 0.265625 -4.078125 C 0.253906 -4.078125 0.25 -4.082031 0.25 -4.09375 L 0.25 -4.21875 L 0.390625 -5.40625 C 0.398438 -5.488281 0.421875 -5.53125 0.453125 -5.53125 C 0.492188 -5.53125 0.535156 -5.503906 0.578125 -5.453125 C 0.617188 -5.398438 0.695312 -5.375 0.8125 -5.375 L 4.921875 -5.375 C 5.023438 -5.375 5.085938 -5.382812 5.109375 -5.40625 C 5.140625 -5.4375 5.164062 -5.460938 5.1875 -5.484375 C 5.207031 -5.515625 5.234375 -5.53125 5.265625 -5.53125 C 5.296875 -5.53125 5.316406 -5.515625 5.328125 -5.484375 C 5.335938 -5.460938 5.34375 -5.4375 5.34375 -5.40625 L 5.484375 -4.21875 L 5.484375 -4.09375 C 5.484375 -4.082031 5.476562 -4.078125 5.46875 -4.078125 L 5.390625 -4.078125 C 5.367188 -4.078125 5.359375 -4.097656 5.359375 -4.140625 C 5.316406 -4.390625 5.253906 -4.585938 5.171875 -4.734375 C 5.097656 -4.890625 4.976562 -4.984375 4.8125 -5.015625 L 3.34375 -5.015625 C 3.3125 -5.015625 3.285156 -5.007812 3.265625 -5 C 3.242188 -4.988281 3.234375 -4.957031 3.234375 -4.90625 L 3.234375 -0.6875 C 3.234375 -0.539062 3.304688 -0.414062 3.453125 -0.3125 C 3.609375 -0.207031 3.8125 -0.15625 4.0625 -0.15625 L 4.171875 -0.15625 C 4.191406 -0.15625 4.203125 -0.144531 4.203125 -0.125 L 4.203125 -0.03125 C 4.203125 -0.0078125 4.191406 0 4.171875 0 L 1.546875 0 C 1.523438 0 1.515625 -0.0078125 1.515625 -0.03125 Z M 1.515625 -0.125" transform="translate(41.785 56.41)"/></g></g></g><g fill="#004AAD"><g><g><path d="M 0.03125 -0.03125 L 0.03125 -0.140625 C 0.03125 -0.160156 0.0390625 -0.171875 0.0625 -0.171875 L 0.140625 -0.171875 C 0.242188 -0.171875 0.351562 -0.171875 0.46875 -0.171875 C 0.582031 -0.179688 0.6875 -0.195312 0.78125 -0.21875 C 0.988281 -0.28125 1.09375 -0.429688 1.09375 -0.671875 L 1.09375 -4.703125 C 1.09375 -4.953125 0.941406 -5.113281 0.640625 -5.1875 C 0.554688 -5.195312 0.472656 -5.207031 0.390625 -5.21875 L 0.3125 -5.21875 C 0.289062 -5.21875 0.28125 -5.226562 0.28125 -5.25 L 0.28125 -5.34375 C 0.28125 -5.363281 0.289062 -5.375 0.3125 -5.375 L 3.9375 -5.375 C 3.976562 -5.375 4.007812 -5.363281 4.03125 -5.34375 C 4.050781 -5.332031 4.0625 -5.300781 4.0625 -5.25 L 4.140625 -4.140625 C 4.140625 -4.109375 4.117188 -4.09375 4.078125 -4.09375 C 4.046875 -4.09375 4.019531 -4.109375 4 -4.140625 C 3.976562 -4.160156 3.957031 -4.25 3.9375 -4.40625 C 3.914062 -4.570312 3.875 -4.707031 3.8125 -4.8125 C 3.75 -4.914062 3.632812 -4.984375 3.46875 -5.015625 L 1.875 -5.015625 C 1.84375 -5.015625 1.828125 -5 1.828125 -4.96875 L 1.828125 -3 C 1.828125 -2.96875 1.84375 -2.953125 1.875 -2.953125 L 3.1875 -2.953125 C 3.53125 -2.953125 3.703125 -3.148438 3.703125 -3.546875 C 3.703125 -3.566406 3.710938 -3.578125 3.734375 -3.578125 L 3.828125 -3.578125 C 3.847656 -3.578125 3.859375 -3.566406 3.859375 -3.546875 L 3.859375 -1.921875 C 3.859375 -1.898438 3.847656 -1.890625 3.828125 -1.890625 L 3.734375 -1.890625 C 3.710938 -1.890625 3.703125 -1.898438 3.703125 -1.921875 C 3.703125 -2.296875 3.59375 -2.515625 3.375 -2.578125 C 3.3125 -2.585938 3.242188 -2.59375 3.171875 -2.59375 L 1.875 -2.59375 C 1.84375 -2.59375 1.828125 -2.582031 1.828125 -2.5625 L 1.828125 -0.703125 C 1.828125 -0.503906 1.914062 -0.394531 2.09375 -0.375 C 2.144531 -0.363281 2.195312 -0.359375 2.25 -0.359375 L 3.53125 -0.359375 C 3.789062 -0.359375 3.992188 -0.472656 4.140625 -0.703125 C 4.242188 -0.867188 4.304688 -1.0625 4.328125 -1.28125 C 4.335938 -1.351562 4.375 -1.390625 4.4375 -1.390625 C 4.46875 -1.390625 4.484375 -1.367188 4.484375 -1.328125 L 4.359375 -0.046875 C 4.347656 -0.015625 4.332031 0 4.3125 0 L 0.0625 0 C 0.0390625 0 0.03125 -0.0078125 0.03125 -0.03125 Z M 0.03125 -0.03125" transform="translate(51.875 56.41)"/></g></g></g><g fill="#004AAD"><g><g><path d="M 0.265625 0 C 0.242188 0 0.234375 -0.0078125 0.234375 -0.03125 L 0.234375 -0.125 C 0.234375 -0.144531 0.242188 -0.15625 0.265625 -0.15625 L 0.359375 -0.15625 C 0.492188 -0.15625 0.585938 -0.164062 0.640625 -0.1875 C 0.828125 -0.28125 0.921875 -0.535156 0.921875 -0.953125 L 0.921875 -4.90625 C 0.921875 -5.082031 0.753906 -5.1875 0.421875 -5.21875 C 0.347656 -5.21875 0.296875 -5.21875 0.265625 -5.21875 C 0.242188 -5.21875 0.234375 -5.226562 0.234375 -5.25 L 0.234375 -5.34375 C 0.234375 -5.363281 0.242188 -5.375 0.265625 -5.375 L 1.65625 -5.375 L 5.28125 -1.375 C 5.289062 -1.363281 5.296875 -1.351562 5.296875 -1.34375 C 5.304688 -1.34375 5.316406 -1.34375 5.328125 -1.34375 C 5.335938 -1.34375 5.34375 -1.351562 5.34375 -1.375 L 5.34375 -4 C 5.34375 -4.507812 5.300781 -4.835938 5.21875 -4.984375 C 5.132812 -5.140625 4.96875 -5.21875 4.71875 -5.21875 L 4.515625 -5.21875 C 4.492188 -5.21875 4.484375 -5.226562 4.484375 -5.25 L 4.484375 -5.34375 C 4.484375 -5.363281 4.492188 -5.375 4.515625 -5.375 L 6.5 -5.375 C 6.519531 -5.375 6.53125 -5.363281 6.53125 -5.34375 L 6.53125 -5.25 C 6.53125 -5.226562 6.492188 -5.21875 6.421875 -5.21875 C 6.347656 -5.21875 6.222656 -5.175781 6.046875 -5.09375 C 5.878906 -5.007812 5.796875 -4.90625 5.796875 -4.78125 L 5.796875 -0.109375 C 5.796875 -0.0546875 5.785156 -0.0195312 5.765625 0 C 5.753906 0.03125 5.71875 0.046875 5.65625 0.046875 C 5.601562 0.046875 5.5625 0.0351562 5.53125 0.015625 C 5.5 -0.00390625 5.46875 -0.0390625 5.4375 -0.09375 L 1.5 -4.453125 C 1.476562 -4.472656 1.457031 -4.484375 1.4375 -4.484375 C 1.414062 -4.484375 1.40625 -4.472656 1.40625 -4.453125 L 1.40625 -0.640625 C 1.40625 -0.410156 1.585938 -0.257812 1.953125 -0.1875 C 2.054688 -0.164062 2.132812 -0.15625 2.1875 -0.15625 C 2.25 -0.15625 2.28125 -0.144531 2.28125 -0.125 L 2.28125 -0.03125 C 2.28125 -0.0078125 2.269531 0 2.25 0 Z M 0.265625 0" transform="translate(57.828 56.41)"/></g></g></g><g fill="#004AAD"><g><g><path d="M 1.515625 -0.125 C 1.515625 -0.144531 1.53125 -0.15625 1.5625 -0.15625 L 1.65625 -0.15625 C 1.90625 -0.15625 2.101562 -0.207031 2.25 -0.3125 C 2.40625 -0.414062 2.484375 -0.539062 2.484375 -0.6875 L 2.484375 -4.90625 C 2.484375 -4.957031 2.472656 -4.988281 2.453125 -5 C 2.429688 -5.007812 2.40625 -5.015625 2.375 -5.015625 L 0.921875 -5.015625 C 0.679688 -4.960938 0.523438 -4.78125 0.453125 -4.46875 C 0.410156 -4.300781 0.382812 -4.191406 0.375 -4.140625 C 0.363281 -4.097656 0.347656 -4.078125 0.328125 -4.078125 L 0.265625 -4.078125 C 0.253906 -4.078125 0.25 -4.082031 0.25 -4.09375 L 0.25 -4.21875 L 0.390625 -5.40625 C 0.398438 -5.488281 0.421875 -5.53125 0.453125 -5.53125 C 0.492188 -5.53125 0.535156 -5.503906 0.578125 -5.453125 C 0.617188 -5.398438 0.695312 -5.375 0.8125 -5.375 L 4.921875 -5.375 C 5.023438 -5.375 5.085938 -5.382812 5.109375 -5.40625 C 5.140625 -5.4375 5.164062 -5.460938 5.1875 -5.484375 C 5.207031 -5.515625 5.234375 -5.53125 5.265625 -5.53125 C 5.296875 -5.53125 5.316406 -5.515625 5.328125 -5.484375 C 5.335938 -5.460938 5.34375 -5.4375 5.34375 -5.40625 L 5.484375 -4.21875 L 5.484375 -4.09375 C 5.484375 -4.082031 5.476562 -4.078125 5.46875 -4.078125 L 5.390625 -4.078125 C 5.367188 -4.078125 5.359375 -4.097656 5.359375 -4.140625 C 5.316406 -4.390625 5.253906 -4.585938 5.171875 -4.734375 C 5.097656 -4.890625 4.976562 -4.984375 4.8125 -5.015625 L 3.34375 -5.015625 C 3.3125 -5.015625 3.285156 -5.007812 3.265625 -5 C 3.242188 -4.988281 3.234375 -4.957031 3.234375 -4.90625 L 3.234375 -0.6875 C 3.234375 -0.539062 3.304688 -0.414062 3.453125 -0.3125 C 3.609375 -0.207031 3.8125 -0.15625 4.0625 -0.15625 L 4.171875 -0.15625 C 4.191406 -0.15625 4.203125 -0.144531 4.203125 -0.125 L 4.203125 -0.03125 C 4.203125 -0.0078125 4.191406 0 4.171875 0 L 1.546875 0 C 1.523438 0 1.515625 -0.0078125 1.515625 -0.03125 Z M 1.515625 -0.125" transform="translate(65.622 56.41)"/></g></g></g><g fill="#004AAD"><g><g><path d="M 0.03125 -0.03125 L 0.03125 -0.140625 C 0.03125 -0.160156 0.0390625 -0.171875 0.0625 -0.171875 L 0.140625 -0.171875 C 0.242188 -0.171875 0.351562 -0.171875 0.46875 -0.171875 C 0.582031 -0.179688 0.6875 -0.195312 0.78125 -0.21875 C 0.988281 -0.28125 1.09375 -0.429688 1.09375 -0.671875 L 1.09375 -4.703125 C 1.09375 -4.953125 0.941406 -5.113281 0.640625 -5.1875 C 0.554688 -5.195312 0.472656 -5.207031 0.390625 -5.21875 L 0.3125 -5.21875 C 0.289062 -5.21875 0.28125 -5.226562 0.28125 -5.25 L 0.28125 -5.34375 C 0.28125 -5.363281 0.289062 -5.375 0.3125 -5.375 L 3.9375 -5.375 C 3.976562 -5.375 4.007812 -5.363281 4.03125 -5.34375 C 4.050781 -5.332031 4.0625 -5.300781 4.0625 -5.25 L 4.140625 -4.140625 C 4.140625 -4.109375 4.117188 -4.09375 4.078125 -4.09375 C 4.046875 -4.09375 4.019531 -4.109375 4 -4.140625 C 3.976562 -4.160156 3.957031 -4.25 3.9375 -4.40625 C 3.914062 -4.570312 3.875 -4.707031 3.8125 -4.8125 C 3.75 -4.914062 3.632812 -4.984375 3.46875 -5.015625 L 1.875 -5.015625 C 1.84375 -5.015625 1.828125 -5 1.828125 -4.96875 L 1.828125 -3 C 1.828125 -2.96875 1.84375 -2.953125 1.875 -2.953125 L 3.1875 -2.953125 C 3.53125 -2.953125 3.703125 -3.148438 3.703125 -3.546875 C 3.703125 -3.566406 3.710938 -3.578125 3.734375 -3.578125 L 3.828125 -3.578125 C 3.847656 -3.578125 3.859375 -3.566406 3.859375 -3.546875 L 3.859375 -1.921875 C 3.859375 -1.898438 3.847656 -1.890625 3.828125 -1.890625 L 3.734375 -1.890625 C 3.710938 -1.890625 3.703125 -1.898438 3.703125 -1.921875 C 3.703125 -2.296875 3.59375 -2.515625 3.375 -2.578125 C 3.3125 -2.585938 3.242188 -2.59375 3.171875 -2.59375 L 1.875 -2.59375 C 1.84375 -2.59375 1.828125 -2.582031 1.828125 -2.5625 L 1.828125 -0.703125 C 1.828125 -0.503906 1.914062 -0.394531 2.09375 -0.375 C 2.144531 -0.363281 2.195312 -0.359375 2.25 -0.359375 L 3.53125 -0.359375 C 3.789062 -0.359375 3.992188 -0.472656 4.140625 -0.703125 C 4.242188 -0.867188 4.304688 -1.0625 4.328125 -1.28125 C 4.335938 -1.351562 4.375 -1.390625 4.4375 -1.390625 C 4.46875 -1.390625 4.484375 -1.367188 4.484375 -1.328125 L 4.359375 -0.046875 C 4.347656 -0.015625 4.332031 0 4.3125 0 L 0.0625 0 C 0.0390625 0 0.03125 -0.0078125 0.03125 -0.03125 Z M 0.03125 -0.03125" transform="translate(72.483 56.41)"/></g></g></g><g fill="#004AAD"><g><g><path d="M 0.203125 0 C 0.179688 0 0.171875 -0.0234375 0.171875 -0.078125 L 0.171875 -0.125 C 0.171875 -0.144531 0.179688 -0.15625 0.203125 -0.15625 C 0.210938 -0.15625 0.234375 -0.15625 0.265625 -0.15625 C 0.304688 -0.164062 0.34375 -0.171875 0.375 -0.171875 C 0.40625 -0.179688 0.4375 -0.1875 0.46875 -0.1875 C 0.5 -0.195312 0.519531 -0.203125 0.53125 -0.203125 C 0.789062 -0.265625 0.921875 -0.414062 0.921875 -0.65625 L 0.921875 -4.671875 C 0.921875 -4.890625 0.832031 -5.046875 0.65625 -5.140625 C 0.550781 -5.191406 0.441406 -5.21875 0.328125 -5.21875 L 0.1875 -5.21875 C 0.164062 -5.21875 0.15625 -5.226562 0.15625 -5.25 L 0.15625 -5.34375 C 0.15625 -5.363281 0.171875 -5.375 0.203125 -5.375 L 2.296875 -5.4375 L 2.671875 -5.4375 C 3.128906 -5.40625 3.507812 -5.238281 3.8125 -4.9375 C 4.113281 -4.644531 4.265625 -4.28125 4.265625 -3.84375 C 4.265625 -3.414062 4.082031 -3.082031 3.71875 -2.84375 C 3.613281 -2.769531 3.492188 -2.703125 3.359375 -2.640625 L 4.515625 -0.75 C 4.710938 -0.414062 4.984375 -0.179688 5.328125 -0.046875 C 5.359375 -0.046875 5.375 -0.03125 5.375 0 C 5.375 0.0625 5.328125 0.09375 5.234375 0.09375 C 4.671875 0.09375 4.21875 -0.125 3.875 -0.5625 C 3.800781 -0.65625 3.726562 -0.757812 3.65625 -0.875 L 2.671875 -2.4375 L 1.765625 -2.46875 L 1.734375 -2.46875 C 1.691406 -2.46875 1.671875 -2.453125 1.671875 -2.421875 L 1.671875 -0.65625 C 1.671875 -0.519531 1.707031 -0.414062 1.78125 -0.34375 C 1.863281 -0.28125 2.003906 -0.234375 2.203125 -0.203125 C 2.253906 -0.191406 2.316406 -0.179688 2.390625 -0.171875 C 2.460938 -0.160156 2.507812 -0.15625 2.53125 -0.15625 C 2.5625 -0.15625 2.578125 -0.144531 2.578125 -0.125 L 2.578125 -0.03125 C 2.578125 -0.0078125 2.566406 0 2.546875 0 Z M 1.984375 -5.234375 C 1.953125 -5.234375 1.914062 -5.234375 1.875 -5.234375 C 1.84375 -5.234375 1.800781 -5.226562 1.75 -5.21875 C 1.695312 -5.21875 1.671875 -5.203125 1.671875 -5.171875 L 1.671875 -2.734375 C 1.679688 -2.679688 1.707031 -2.65625 1.75 -2.65625 L 2.140625 -2.625 C 2.859375 -2.625 3.289062 -2.878906 3.4375 -3.390625 C 3.476562 -3.554688 3.5 -3.738281 3.5 -3.9375 C 3.5 -4.34375 3.375 -4.660156 3.125 -4.890625 C 2.875 -5.117188 2.554688 -5.234375 2.171875 -5.234375 C 2.128906 -5.234375 2.09375 -5.234375 2.0625 -5.234375 C 2.039062 -5.234375 2.015625 -5.234375 1.984375 -5.234375 Z M 1.984375 -5.234375" transform="translate(78.435 56.41)"/></g></g></g><g fill="#004AAD"><g><g><path d="M 0.375 0 C 0.351562 0 0.34375 -0.0234375 0.34375 -0.078125 L 0.34375 -0.125 C 0.34375 -0.144531 0.351562 -0.15625 0.375 -0.15625 C 0.40625 -0.15625 0.445312 -0.160156 0.5 -0.171875 C 0.550781 -0.191406 0.585938 -0.203125 0.609375 -0.203125 C 0.867188 -0.265625 1 -0.414062 1 -0.65625 L 1 -4.671875 C 1 -4.910156 0.957031 -5.0625 0.875 -5.125 C 0.789062 -5.1875 0.632812 -5.21875 0.40625 -5.21875 L 0.234375 -5.21875 C 0.179688 -5.21875 0.15625 -5.25 0.15625 -5.3125 C 0.15625 -5.351562 0.171875 -5.375 0.203125 -5.375 L 0.234375 -5.375 L 2.375 -5.4375 L 2.75 -5.4375 C 3.207031 -5.40625 3.585938 -5.238281 3.890625 -4.9375 C 4.191406 -4.644531 4.34375 -4.289062 4.34375 -3.875 C 4.34375 -3.457031 4.195312 -3.082031 3.90625 -2.75 C 3.769531 -2.59375 3.617188 -2.46875 3.453125 -2.375 C 3.296875 -2.28125 3.140625 -2.234375 2.984375 -2.234375 L 1.828125 -2.28125 L 1.796875 -2.28125 C 1.765625 -2.28125 1.75 -2.265625 1.75 -2.234375 L 1.75 -0.65625 C 1.75 -0.519531 1.785156 -0.414062 1.859375 -0.34375 C 1.929688 -0.28125 2.09375 -0.226562 2.34375 -0.1875 C 2.375 -0.1875 2.425781 -0.179688 2.5 -0.171875 C 2.570312 -0.160156 2.617188 -0.15625 2.640625 -0.15625 C 2.671875 -0.15625 2.6875 -0.144531 2.6875 -0.125 L 2.6875 -0.03125 C 2.6875 -0.0078125 2.675781 0 2.65625 0 Z M 2.0625 -5.234375 C 2.03125 -5.234375 1.992188 -5.234375 1.953125 -5.234375 C 1.921875 -5.234375 1.878906 -5.234375 1.828125 -5.234375 C 1.773438 -5.234375 1.75 -5.210938 1.75 -5.171875 L 1.75 -2.59375 C 1.757812 -2.539062 1.785156 -2.515625 1.828125 -2.515625 L 2.21875 -2.484375 C 2.625 -2.484375 2.953125 -2.617188 3.203125 -2.890625 C 3.453125 -3.171875 3.578125 -3.519531 3.578125 -3.9375 C 3.578125 -4.351562 3.457031 -4.675781 3.21875 -4.90625 C 2.976562 -5.132812 2.65625 -5.25 2.25 -5.25 C 2.207031 -5.25 2.171875 -5.25 2.140625 -5.25 C 2.117188 -5.25 2.09375 -5.242188 2.0625 -5.234375 Z M 2.0625 -5.234375" transform="translate(84.979 56.41)"/></g></g></g><g fill="#004AAD"><g><g><path d="M 0.203125 0 C 0.179688 0 0.171875 -0.0234375 0.171875 -0.078125 L 0.171875 -0.125 C 0.171875 -0.144531 0.179688 -0.15625 0.203125 -0.15625 C 0.210938 -0.15625 0.234375 -0.15625 0.265625 -0.15625 C 0.304688 -0.164062 0.34375 -0.171875 0.375 -0.171875 C 0.40625 -0.179688 0.4375 -0.1875 0.46875 -0.1875 C 0.5 -0.195312 0.519531 -0.203125 0.53125 -0.203125 C 0.789062 -0.265625 0.921875 -0.414062 0.921875 -0.65625 L 0.921875 -4.671875 C 0.921875 -4.890625 0.832031 -5.046875 0.65625 -5.140625 C 0.550781 -5.191406 0.441406 -5.21875 0.328125 -5.21875 L 0.1875 -5.21875 C 0.164062 -5.21875 0.15625 -5.226562 0.15625 -5.25 L 0.15625 -5.34375 C 0.15625 -5.363281 0.171875 -5.375 0.203125 -5.375 L 2.296875 -5.4375 L 2.671875 -5.4375 C 3.128906 -5.40625 3.507812 -5.238281 3.8125 -4.9375 C 4.113281 -4.644531 4.265625 -4.28125 4.265625 -3.84375 C 4.265625 -3.414062 4.082031 -3.082031 3.71875 -2.84375 C 3.613281 -2.769531 3.492188 -2.703125 3.359375 -2.640625 L 4.515625 -0.75 C 4.710938 -0.414062 4.984375 -0.179688 5.328125 -0.046875 C 5.359375 -0.046875 5.375 -0.03125 5.375 0 C 5.375 0.0625 5.328125 0.09375 5.234375 0.09375 C 4.671875 0.09375 4.21875 -0.125 3.875 -0.5625 C 3.800781 -0.65625 3.726562 -0.757812 3.65625 -0.875 L 2.671875 -2.4375 L 1.765625 -2.46875 L 1.734375 -2.46875 C 1.691406 -2.46875 1.671875 -2.453125 1.671875 -2.421875 L 1.671875 -0.65625 C 1.671875 -0.519531 1.707031 -0.414062 1.78125 -0.34375 C 1.863281 -0.28125 2.003906 -0.234375 2.203125 -0.203125 C 2.253906 -0.191406 2.316406 -0.179688 2.390625 -0.171875 C 2.460938 -0.160156 2.507812 -0.15625 2.53125 -0.15625 C 2.5625 -0.15625 2.578125 -0.144531 2.578125 -0.125 L 2.578125 -0.03125 C 2.578125 -0.0078125 2.566406 0 2.546875 0 Z M 1.984375 -5.234375 C 1.953125 -5.234375 1.914062 -5.234375 1.875 -5.234375 C 1.84375 -5.234375 1.800781 -5.226562 1.75 -5.21875 C 1.695312 -5.21875 1.671875 -5.203125 1.671875 -5.171875 L 1.671875 -2.734375 C 1.679688 -2.679688 1.707031 -2.65625 1.75 -2.65625 L 2.140625 -2.625 C 2.859375 -2.625 3.289062 -2.878906 3.4375 -3.390625 C 3.476562 -3.554688 3.5 -3.738281 3.5 -3.9375 C 3.5 -4.34375 3.375 -4.660156 3.125 -4.890625 C 2.875 -5.117188 2.554688 -5.234375 2.171875 -5.234375 C 2.128906 -5.234375 2.09375 -5.234375 2.0625 -5.234375 C 2.039062 -5.234375 2.015625 -5.234375 1.984375 -5.234375 Z M 1.984375 -5.234375" transform="translate(90.73 56.41)"/></g></g></g><g fill="#004AAD"><g><g><path d="M 0.96875 -4.765625 C 0.96875 -5.066406 0.789062 -5.21875 0.4375 -5.21875 C 0.375 -5.21875 0.34375 -5.226562 0.34375 -5.25 L 0.34375 -5.34375 C 0.34375 -5.363281 0.351562 -5.375 0.375 -5.375 L 2.296875 -5.375 C 2.316406 -5.375 2.328125 -5.363281 2.328125 -5.34375 L 2.328125 -5.25 C 2.328125 -5.226562 2.269531 -5.21875 2.15625 -5.21875 C 2.039062 -5.21875 1.9375 -5.179688 1.84375 -5.109375 C 1.75 -5.046875 1.703125 -4.90625 1.703125 -4.6875 L 1.703125 -0.609375 C 1.703125 -0.304688 1.878906 -0.15625 2.234375 -0.15625 C 2.285156 -0.15625 2.3125 -0.144531 2.3125 -0.125 L 2.3125 -0.03125 C 2.3125 -0.0078125 2.300781 0 2.28125 0 L 0.375 0 C 0.351562 0 0.34375 -0.0078125 0.34375 -0.03125 L 0.34375 -0.125 C 0.34375 -0.144531 0.394531 -0.15625 0.5 -0.15625 C 0.613281 -0.15625 0.71875 -0.1875 0.8125 -0.25 C 0.914062 -0.320312 0.96875 -0.472656 0.96875 -0.703125 Z M 0.96875 -4.765625" transform="translate(97.273 56.41)"/></g></g></g><g fill="#004AAD"><g><g><path d="M 3.21875 -5.328125 C 3.238281 -5.328125 3.25 -5.300781 3.25 -5.25 L 3.359375 -4.4375 C 3.367188 -4.382812 3.375 -4.347656 3.375 -4.328125 C 3.375 -4.316406 3.351562 -4.3125 3.3125 -4.3125 C 3.269531 -4.3125 3.242188 -4.316406 3.234375 -4.328125 C 3.222656 -4.335938 3.210938 -4.351562 3.203125 -4.375 C 3.191406 -4.40625 3.179688 -4.4375 3.171875 -4.46875 C 3.160156 -4.5 3.144531 -4.53125 3.125 -4.5625 C 3.070312 -4.675781 2.988281 -4.789062 2.875 -4.90625 C 2.59375 -5.175781 2.28125 -5.3125 1.9375 -5.3125 C 1.71875 -5.3125 1.515625 -5.238281 1.328125 -5.09375 C 1.140625 -4.957031 1.046875 -4.796875 1.046875 -4.609375 C 1.046875 -4.429688 1.082031 -4.269531 1.15625 -4.125 C 1.226562 -3.988281 1.320312 -3.863281 1.4375 -3.75 C 1.550781 -3.632812 1.679688 -3.519531 1.828125 -3.40625 C 1.972656 -3.300781 2.125 -3.195312 2.28125 -3.09375 C 2.675781 -2.8125 2.960938 -2.566406 3.140625 -2.359375 C 3.398438 -2.054688 3.546875 -1.707031 3.578125 -1.3125 C 3.578125 -0.882812 3.410156 -0.539062 3.078125 -0.28125 C 2.742188 -0.0195312 2.359375 0.109375 1.921875 0.109375 C 1.628906 0.109375 1.398438 0.078125 1.234375 0.015625 C 1.066406 -0.0351562 0.953125 -0.0703125 0.890625 -0.09375 C 0.828125 -0.125 0.78125 -0.140625 0.75 -0.140625 C 0.726562 -0.140625 0.710938 -0.140625 0.703125 -0.140625 L 0.515625 -0.109375 C 0.484375 -0.109375 0.460938 -0.132812 0.453125 -0.1875 C 0.378906 -0.8125 0.34375 -1.144531 0.34375 -1.1875 C 0.34375 -1.226562 0.34375 -1.253906 0.34375 -1.265625 C 0.351562 -1.285156 0.375 -1.296875 0.40625 -1.296875 C 0.476562 -1.296875 0.539062 -1.191406 0.59375 -0.984375 C 0.863281 -0.410156 1.3125 -0.125 1.9375 -0.125 C 2.21875 -0.125 2.457031 -0.207031 2.65625 -0.375 C 2.863281 -0.550781 2.96875 -0.78125 2.96875 -1.0625 C 2.96875 -1.5 2.703125 -1.910156 2.171875 -2.296875 C 2.023438 -2.398438 1.804688 -2.546875 1.515625 -2.734375 C 1.234375 -2.929688 1.007812 -3.125 0.84375 -3.3125 C 0.582031 -3.601562 0.453125 -3.929688 0.453125 -4.296875 C 0.453125 -4.660156 0.59375 -4.957031 0.875 -5.1875 C 1.164062 -5.414062 1.5 -5.53125 1.875 -5.53125 C 2.070312 -5.53125 2.285156 -5.5 2.515625 -5.4375 C 2.753906 -5.375 2.914062 -5.332031 3 -5.3125 Z M 3.21875 -5.328125" transform="translate(101.071 56.41)"/></g></g></g><g fill="#004AAD"><g><g><path d="M 0.03125 -0.03125 L 0.03125 -0.140625 C 0.03125 -0.160156 0.0390625 -0.171875 0.0625 -0.171875 L 0.140625 -0.171875 C 0.242188 -0.171875 0.351562 -0.171875 0.46875 -0.171875 C 0.582031 -0.179688 0.6875 -0.195312 0.78125 -0.21875 C 0.988281 -0.28125 1.09375 -0.429688 1.09375 -0.671875 L 1.09375 -4.703125 C 1.09375 -4.953125 0.941406 -5.113281 0.640625 -5.1875 C 0.554688 -5.195312 0.472656 -5.207031 0.390625 -5.21875 L 0.3125 -5.21875 C 0.289062 -5.21875 0.28125 -5.226562 0.28125 -5.25 L 0.28125 -5.34375 C 0.28125 -5.363281 0.289062 -5.375 0.3125 -5.375 L 3.9375 -5.375 C 3.976562 -5.375 4.007812 -5.363281 4.03125 -5.34375 C 4.050781 -5.332031 4.0625 -5.300781 4.0625 -5.25 L 4.140625 -4.140625 C 4.140625 -4.109375 4.117188 -4.09375 4.078125 -4.09375 C 4.046875 -4.09375 4.019531 -4.109375 4 -4.140625 C 3.976562 -4.160156 3.957031 -4.25 3.9375 -4.40625 C 3.914062 -4.570312 3.875 -4.707031 3.8125 -4.8125 C 3.75 -4.914062 3.632812 -4.984375 3.46875 -5.015625 L 1.875 -5.015625 C 1.84375 -5.015625 1.828125 -5 1.828125 -4.96875 L 1.828125 -3 C 1.828125 -2.96875 1.84375 -2.953125 1.875 -2.953125 L 3.1875 -2.953125 C 3.53125 -2.953125 3.703125 -3.148438 3.703125 -3.546875 C 3.703125 -3.566406 3.710938 -3.578125 3.734375 -3.578125 L 3.828125 -3.578125 C 3.847656 -3.578125 3.859375 -3.566406 3.859375 -3.546875 L 3.859375 -1.921875 C 3.859375 -1.898438 3.847656 -1.890625 3.828125 -1.890625 L 3.734375 -1.890625 C 3.710938 -1.890625 3.703125 -1.898438 3.703125 -1.921875 C 3.703125 -2.296875 3.59375 -2.515625 3.375 -2.578125 C 3.3125 -2.585938 3.242188 -2.59375 3.171875 -2.59375 L 1.875 -2.59375 C 1.84375 -2.59375 1.828125 -2.582031 1.828125 -2.5625 L 1.828125 -0.703125 C 1.828125 -0.503906 1.914062 -0.394531 2.09375 -0.375 C 2.144531 -0.363281 2.195312 -0.359375 2.25 -0.359375 L 3.53125 -0.359375 C 3.789062 -0.359375 3.992188 -0.472656 4.140625 -0.703125 C 4.242188 -0.867188 4.304688 -1.0625 4.328125 -1.28125 C 4.335938 -1.351562 4.375 -1.390625 4.4375 -1.390625 C 4.46875 -1.390625 4.484375 -1.367188 4.484375 -1.328125 L 4.359375 -0.046875 C 4.347656 -0.015625 4.332031 0 4.3125 0 L 0.0625 0 C 0.0390625 0 0.03125 -0.0078125 0.03125 -0.03125 Z M 0.03125 -0.03125" transform="translate(106.116 56.41)"/></g></g></g></svg>